<svg xmlns="http://www.w3.org/2000/svg" width="5000" height="2813" viewBox="0 0 5000 2813" version="1.1"><path d="M 3735.917 595.414 C 3735.688 595.641, 3728.525 596.330, 3720 596.944 C 3645.563 602.308, 3586.748 618.122, 3533.380 647.122 C 3467.924 682.690, 3421.540 736.536, 3399.964 802 C 3386.680 842.304, 3382.734 883.847, 3387.577 932.390 C 3392.645 983.185, 3411.171 1031.695, 3438.795 1066.500 C 3446.175 1075.799, 3465.420 1095.431, 3476.034 1104.488 C 3501.946 1126.597, 3536.806 1148.060, 3574 1164.803 C 3618.908 1185.018, 3664.873 1199.978, 3734.500 1217.038 C 3844.979 1244.108, 3898.724 1262.356, 3932 1284.096 C 3963.139 1304.439, 3974.678 1325.561, 3978.179 1368.625 C 3981.314 1407.184, 3971.286 1436.562, 3946.493 1461.456 C 3934.895 1473.102, 3922.889 1481.519, 3905.800 1489.985 C 3881.222 1502.161, 3852.021 1510.094, 3819 1513.565 C 3797.697 1515.805, 3755.227 1515.092, 3736.478 1512.181 C 3696.007 1505.897, 3663.203 1491.701, 3637.500 1469.351 C 3604.632 1440.770, 3579.414 1391.662, 3566.455 1331 C 3562.181 1310.996, 3562.747 1312.465, 3559.421 1312.753 C 3557.814 1312.892, 3510.231 1318.630, 3453.680 1325.503 C 3397.129 1332.376, 3350.158 1338, 3349.301 1338 C 3347.462 1338, 3347.730 1340.827, 3351.582 1362 C 3373.454 1482.253, 3430.708 1572.880, 3521.277 1630.610 C 3546.804 1646.880, 3584.918 1664.443, 3614 1673.335 C 3662.977 1688.311, 3705.854 1694.659, 3765 1695.692 C 3819.600 1696.646, 3863.719 1692.608, 3910.134 1682.408 C 3995.485 1663.652, 4059.352 1631.413, 4109.049 1582 C 4154.627 1536.683, 4180.607 1485.002, 4190.007 1420.954 C 4199.099 1359.006, 4191.272 1279.924, 4171.009 1229 C 4158.261 1196.963, 4144.563 1175.838, 4120.515 1151.126 C 4076.268 1105.658, 4013.102 1071.574, 3919.469 1042.643 C 3891.782 1034.088, 3872.224 1028.870, 3827.296 1018.050 C 3739.518 996.910, 3692.651 982.068, 3658 964.439 C 3622.825 946.544, 3605.145 927.727, 3597.924 900.500 C 3596.284 894.318, 3595.788 889.433, 3595.742 879 C 3595.657 859.789, 3598.706 847.466, 3606.898 833.914 C 3616.965 817.261, 3631.135 805.385, 3654.500 794.018 C 3687.121 778.147, 3726.309 771.637, 3774.500 774.082 C 3880.631 779.468, 3932.469 822.236, 3947.531 916.838 L 3949.337 928.177 3953.418 927.589 C 3955.663 927.266, 3993.725 922.968, 4038 918.039 C 4149.679 905.606, 4163.287 904.047, 4163.695 903.639 C 4164.347 902.986, 4158.946 876.744, 4154.823 860.535 C 4141.991 810.085, 4120.446 765.048, 4090.940 727 C 4081.788 715.199, 4059.620 692.377, 4047 681.763 C 3991.214 634.847, 3916.180 606.329, 3828 598.529 C 3818.375 597.678, 3806.096 596.535, 3800.714 595.990 C 3791.343 595.042, 3736.780 594.556, 3735.917 595.414 M 830 1146 L 830 1678 1193.500 1678 L 1557 1678 1557 1587.500 L 1557 1497 1301 1497 L 1045 1497 1045 1357 L 1045 1217 1268.500 1217 L 1492 1217 1492 1127 L 1492 1037 1268.500 1037 L 1045 1037 1045 915.500 L 1045 794 1288.500 794 L 1532 794 1532 704 L 1532 614 1181 614 L 830 614 830 1146 M 1794 1145.972 L 1794 1678 2014.750 1677.990 C 2149.854 1677.984, 2242.096 1677.593, 2252.500 1676.980 C 2400.836 1668.251, 2506.620 1619.822, 2578.194 1527.874 C 2655.758 1428.231, 2692.246 1290.167, 2686.167 1119.327 C 2684.805 1081.052, 2683.947 1068.725, 2680.471 1037.500 C 2662.354 874.733, 2601.340 757.031, 2499.500 688.389 C 2446.974 652.985, 2384.944 630.614, 2310 620.047 C 2269.679 614.362, 2283.309 614.641, 2028.750 614.278 L 1794 613.944 1794 1145.972 M 2917 1146 L 2917 1678 3024 1678 L 3131 1678 3131 1146 L 3131 614 3024 614 L 2917 614 2917 1146 M 2009 1145.500 L 2009 1497 2107.750 1496.998 C 2222.382 1496.995, 2238.047 1496.241, 2275.639 1488.919 C 2394.355 1465.795, 2446.863 1393.226, 2460.449 1233.500 C 2466.243 1165.377, 2464.711 1087.777, 2456.432 1030.103 C 2449.744 983.513, 2440.031 949.257, 2424.504 917.500 C 2392.586 852.218, 2342.431 816.228, 2263 801.610 C 2228.271 795.219, 2201.939 794.048, 2092.250 794.021 L 2009 794 2009 1145.500 M 785.994 1833.934 C 778.043 1836.354, 770.249 1843.886, 767.575 1851.734 C 762.767 1865.844, 770.247 1881.647, 784.035 1886.512 C 787.761 1887.827, 987.390 1888, 2500 1888 C 4012.610 1888, 4212.239 1887.827, 4215.965 1886.512 C 4229.753 1881.647, 4237.233 1865.844, 4232.425 1851.734 C 4230.482 1846.031, 4224.127 1838.650, 4218.628 1835.708 L 4214.500 1833.500 2501.500 1833.335 C 1559.350 1833.245, 787.372 1833.514, 785.994 1833.934 M 928.636 1984.045 C 916.550 1985.398, 905.478 1988.612, 894.500 1993.952 C 856.557 2012.408, 836.012 2049.836, 836.012 2100.500 C 836.012 2155.981, 858.957 2194.867, 901.016 2210.665 C 926.392 2220.196, 961.221 2220.334, 989 2211.012 C 1003.822 2206.038, 1018.569 2198.296, 1030.054 2189.459 L 1036 2184.883 1036 2141.442 L 1036 2098 989.472 2098 L 942.944 2098 943.222 2111.750 L 943.500 2125.500 974.750 2125.764 L 1006 2126.028 1006 2148.910 L 1006 2171.792 1001.218 2174.860 C 982.424 2186.920, 957.087 2193.114, 935.565 2190.909 C 916.535 2188.959, 904.054 2183.206, 891.445 2170.571 C 875.340 2154.434, 868.012 2132.520, 868.012 2100.500 C 868.012 2072.030, 874.293 2050.541, 887.534 2033.713 C 905.560 2010.803, 942.689 2003.133, 970.842 2016.502 C 983.956 2022.730, 996.712 2038.031, 1001.061 2052.750 C 1001.751 2055.088, 1002.808 2056.990, 1003.408 2056.978 C 1004.009 2056.966, 1010.575 2055.482, 1018 2053.680 C 1033.641 2049.884, 1033.233 2050.482, 1028.440 2038.364 C 1019.475 2015.699, 1001.664 1997.771, 980.506 1990.116 C 964.962 1984.491, 945.250 1982.184, 928.636 1984.045 M 2219 1983.979 C 2172.586 1988.933, 2139.165 2019.968, 2128.995 2067.557 C 2125.987 2081.634, 2125.259 2106.517, 2127.385 2122.612 C 2131.272 2152.041, 2141.990 2175.238, 2159.297 2191.677 C 2177.591 2209.055, 2201.820 2218, 2230.596 2218 C 2269.543 2218, 2301.060 2199.699, 2317.122 2167.756 C 2321.017 2160.010, 2326.001 2146.179, 2325.999 2143.122 C 2325.997 2141.854, 2322.821 2140.769, 2311.433 2138.149 C 2303.423 2136.306, 2296.763 2134.956, 2296.633 2135.149 C 2296.503 2135.342, 2295.580 2138.200, 2294.581 2141.500 C 2288.577 2161.341, 2278.132 2175.319, 2262.927 2183.861 C 2245.737 2193.517, 2216.400 2193.847, 2198.191 2184.589 C 2172.103 2171.325, 2158.012 2141.658, 2158.012 2100 C 2158.012 2043.707, 2185.417 2010.052, 2231.292 2010.008 C 2260.382 2009.979, 2280.673 2024.188, 2290.547 2051.500 C 2291.541 2054.250, 2292.470 2056.658, 2292.612 2056.851 C 2292.753 2057.044, 2299.423 2055.694, 2307.433 2053.851 C 2319.255 2051.131, 2321.997 2050.175, 2321.999 2048.776 C 2321.999 2047.828, 2320.621 2043.553, 2318.936 2039.276 C 2309.992 2016.576, 2292.859 1998.779, 2272.243 1990.774 C 2257.115 1984.900, 2235.825 1982.183, 2219 1983.979 M 2541.500 1984.006 C 2524.534 1985.751, 2506.120 1992.412, 2492.282 2001.808 C 2469.855 2017.039, 2454.121 2041.966, 2448.011 2071.946 C 2442.123 2100.840, 2445.467 2132.572, 2456.934 2156.630 C 2463.406 2170.208, 2468.757 2177.915, 2478.421 2187.579 C 2491.890 2201.048, 2506.910 2209.664, 2525.794 2214.754 C 2534.614 2217.131, 2537.188 2217.369, 2554 2217.369 C 2570.812 2217.369, 2573.386 2217.131, 2582.206 2214.754 C 2601.513 2209.550, 2616.421 2200.895, 2630 2187.007 C 2643.405 2173.297, 2653.012 2156.005, 2657.949 2136.699 C 2663.815 2113.765, 2663.424 2084.194, 2656.950 2061.005 C 2646.047 2021.956, 2615.806 1993.462, 2577 1985.675 C 2567.211 1983.711, 2551.536 1982.974, 2541.500 1984.006 M 3768.928 1984.019 C 3718.871 1989.671, 3683.068 2025.108, 3674.483 2077.500 C 3671.269 2097.115, 3673.042 2124.350, 3678.716 2142.500 C 3681.226 2150.528, 3688.377 2165.822, 3692.265 2171.476 C 3712.919 2201.506, 3744.527 2218, 3781.425 2218 C 3812.087 2218, 3837.800 2207.376, 3858.054 2186.337 C 3871.724 2172.139, 3880.502 2156.054, 3885.525 2136 C 3894.991 2098.208, 3888.664 2057.239, 3868.786 2027.612 C 3862.923 2018.873, 3848.783 2005.225, 3839.823 1999.656 C 3819.792 1987.205, 3793.015 1981.299, 3768.928 1984.019 M 1173 2100.500 L 1173 2214 1188.500 2214 L 1204 2214 1204 2165 L 1204 2116 1219.912 2116 C 1245.056 2116, 1255.599 2118.917, 1266.300 2128.834 C 1274.161 2136.119, 1281.326 2148.231, 1297.973 2182.379 L 1313.388 2214 1330.194 2214 C 1339.437 2214, 1347 2213.735, 1347 2213.412 C 1347 2211.638, 1308.225 2136.291, 1304.005 2129.863 C 1298.209 2121.036, 1291.795 2114.261, 1287.500 2112.429 C 1285.458 2111.558, 1284.979 2111.001, 1286 2110.685 C 1311.557 2102.770, 1326.324 2089.412, 1332.633 2068.500 C 1335.121 2060.252, 1335.110 2040.121, 1332.612 2031 C 1327.184 2011.180, 1312.220 1996.843, 1290.955 1991.089 C 1277.982 1987.579, 1267.905 1987, 1219.776 1987 L 1173 1987 1173 2100.500 M 1470.996 1987.474 C 1470.993 1987.763, 1470.989 2038.737, 1470.987 2100.750 L 1470.983 2213.500 1486.241 2213.500 L 1501.500 2213.500 1501.500 2100.500 L 1501.500 1987.500 1486.250 1987.224 C 1477.862 1987.072, 1470.998 1987.185, 1470.996 1987.474 M 1643.489 1988.177 C 1643.212 1988.905, 1643.101 2039.900, 1643.243 2101.500 L 1643.500 2213.500 1692 2213.500 C 1735.217 2213.500, 1741.424 2213.301, 1748.984 2211.672 C 1794.064 2201.960, 1819.920 2168.298, 1824.218 2113.724 C 1827.008 2078.297, 1819.713 2044.737, 1804.640 2023.656 C 1792.369 2006.495, 1777.024 1996.147, 1755.011 1990.190 L 1745.500 1987.616 1694.747 1987.235 C 1653.308 1986.924, 1643.901 1987.097, 1643.489 1988.177 M 2794 2100.500 L 2794 2214 2808.495 2214 L 2822.989 2214 2823.245 2125.957 L 2823.500 2037.914 2880 2125.907 L 2936.500 2213.899 2952.250 2213.950 L 2968 2214 2968 2100.500 L 2968 1987 2953.505 1987 L 2939.011 1987 2938.755 2075.001 L 2938.500 2163.003 2882 2075.025 L 2825.500 1987.047 2809.750 1987.024 L 2794 1987 2794 2100.500 M 3091 2001 L 3091 2015 3127 2015 L 3163 2015 3163 2114.500 L 3163 2214 3178.500 2214 L 3194 2214 3194 2114.500 L 3194 2015 3230 2015 L 3266 2015 3266 2001 L 3266 1987 3178.500 1987 L 3091 1987 3091 2001 M 3389 2100.500 L 3389 2214 3404.500 2214 L 3420 2214 3420 2165 L 3420 2116 3435.912 2116 C 3462.622 2116, 3472.387 2119.032, 3484 2130.930 C 3492.315 2139.450, 3496.575 2146.810, 3514.428 2183.500 L 3529.025 2213.500 3546.012 2213.774 C 3555.356 2213.924, 3563 2213.778, 3563 2213.448 C 3563 2212.143, 3527.701 2142.939, 3522.766 2134.569 C 3516.821 2124.487, 3508.617 2115.033, 3503.780 2112.690 C 3501.613 2111.641, 3501.026 2110.968, 3502.016 2110.670 C 3528.021 2102.843, 3543.831 2087.847, 3549.111 2066 C 3550.981 2058.262, 3550.739 2040.009, 3548.661 2032 C 3542.087 2006.669, 3523.084 1992.200, 3490.904 1988.023 C 3486.832 1987.494, 3462.238 1987.048, 3436.250 1987.031 L 3389 1987 3389 2100.500 M 4021.667 1987.667 C 4021.300 1988.033, 4021 2039.108, 4021 2101.167 L 4021 2214 4092.528 2214 L 4164.056 2214 4163.778 2200.250 L 4163.500 2186.500 4107.750 2186.242 L 4052 2185.983 4052 2086.492 L 4052 1987 4037.167 1987 C 4029.008 1987, 4022.033 1987.300, 4021.667 1987.667 M 2537.365 2011.430 C 2522.443 2014.829, 2510.827 2021.355, 2500.502 2032.141 C 2482.293 2051.162, 2473.848 2083.732, 2478.109 2118.500 C 2482.600 2155.147, 2502.963 2181.008, 2533.713 2189.116 C 2544.610 2191.990, 2562.455 2191.972, 2573.442 2189.077 C 2598.730 2182.412, 2616.848 2164.384, 2625.274 2137.500 C 2631.036 2119.118, 2631.629 2088.748, 2626.602 2069.500 C 2618.897 2039.998, 2600.331 2019.726, 2574.392 2012.494 C 2566.242 2010.221, 2545.312 2009.620, 2537.365 2011.430 M 3764.500 2011.592 C 3737.499 2017.628, 3718.802 2035.689, 3709.707 2064.524 C 3705.765 2077.018, 3704.713 2086.917, 3705.271 2106.240 C 3705.876 2127.162, 3707.783 2135.805, 3715.147 2151 C 3719.643 2160.277, 3721.300 2162.550, 3729.368 2170.516 C 3744.231 2185.191, 3758.948 2191.095, 3781 2191.228 C 3798.987 2191.336, 3811.471 2187.454, 3825.798 2177.296 C 3848.483 2161.212, 3860.735 2126.869, 3857.208 2089.249 C 3854.734 2062.850, 3847.705 2045.922, 3833 2030.947 C 3824.547 2022.340, 3815.917 2017.048, 3804.167 2013.269 C 3794.134 2010.043, 3775.042 2009.235, 3764.500 2011.592 M 1204 2051.500 L 1204 2088 1235.250 2087.983 C 1270.198 2087.963, 1275.961 2087.270, 1286.096 2081.868 C 1298.092 2075.475, 1302.500 2067.039, 1302.500 2050.478 C 1302.500 2041.188, 1302.262 2039.973, 1299.243 2033.842 C 1295.882 2027.015, 1292.724 2023.931, 1285.144 2020.070 C 1276.664 2015.751, 1269.675 2015.036, 1235.750 2015.017 L 1204 2015 1204 2051.500 M 1674 2100.500 L 1674 2186.145 1706.750 2185.736 C 1734.069 2185.394, 1740.495 2185.037, 1745.500 2183.583 C 1762.712 2178.583, 1775.534 2168.075, 1782.817 2153 C 1790.171 2137.779, 1793.707 2115.898, 1792.676 2092 C 1791.782 2071.292, 1788.158 2055.789, 1781.307 2043.370 C 1777.150 2035.833, 1767.329 2026.759, 1758.845 2022.617 C 1745.273 2015.989, 1743.069 2015.677, 1706.750 2015.245 L 1674 2014.855 1674 2100.500 M 3420 2051.431 L 3420 2088 3451.250 2087.983 C 3486.181 2087.963, 3491.963 2087.269, 3502.071 2081.881 C 3512.090 2076.541, 3517.428 2068.006, 3518.594 2055.462 C 3520.403 2036, 3512.410 2023.518, 3494.119 2017.240 C 3490.351 2015.947, 3483.094 2015.582, 3454.750 2015.258 L 3420 2014.861 3420 2051.431" stroke="none" fill="#ffffff" fill-rule="evenodd"/></svg>