<svg xmlns="http://www.w3.org/2000/svg" width="5000" height="1607" viewBox="0 0 5000 1607" version="1.1"><path d="M 2260.500 325.589 C 2230.159 328.511, 2214.669 331.126, 2196.155 336.455 C 2100.187 364.078, 2050.574 439.455, 2066.133 534 C 2070.813 562.439, 2081.975 586.842, 2099.921 607.864 C 2116.499 627.285, 2150.451 649.803, 2183.667 663.408 C 2210.574 674.428, 2228.201 679.868, 2276.013 691.906 C 2348.592 710.180, 2376.381 720.836, 2394.745 737.436 C 2401.397 743.448, 2407.417 755.227, 2409.518 766.338 C 2411.463 776.625, 2411.446 795.826, 2409.485 803.540 C 2402.230 832.080, 2374.538 853.228, 2334.233 861.006 C 2302.534 867.123, 2265.572 864.806, 2240.491 855.130 C 2204.803 841.362, 2181.195 808.345, 2169.609 756 L 2167.285 745.500 2163.943 745.846 C 2148.211 747.476, 2041.889 760.778, 2041.502 761.164 C 2040.714 761.953, 2044.698 782.736, 2048.424 797.272 C 2071.993 889.233, 2137.686 949.506, 2232.226 965.909 C 2253.850 969.661, 2264.952 970.477, 2294 970.453 C 2333.286 970.421, 2358.280 967.213, 2390.759 958.033 C 2432.124 946.343, 2463.206 928.915, 2489 902.947 C 2514.621 877.154, 2528.378 850.371, 2535.200 813 C 2536.926 803.543, 2537.312 797.326, 2537.371 778 C 2537.414 764.297, 2536.917 750.539, 2536.180 745 C 2528.696 688.726, 2507.935 654.431, 2464 625.767 C 2432.668 605.326, 2392.885 590.163, 2329.500 574.505 C 2247.192 554.173, 2218.894 543.550, 2201.593 526.492 C 2191.404 516.446, 2186.990 505.561, 2187.012 490.540 C 2187.047 466.950, 2200.535 449.698, 2227.302 439.008 C 2245.613 431.694, 2261.122 429.499, 2288.840 430.296 C 2316.104 431.080, 2330.939 434.390, 2349.500 443.829 C 2361.594 449.980, 2374.504 462.687, 2380.715 474.553 C 2385.938 484.532, 2390.211 497.482, 2392.493 510.250 C 2394.061 519.022, 2394.450 519.995, 2396.368 519.952 C 2402.058 519.823, 2519.036 506.298, 2519.634 505.700 C 2520.618 504.715, 2518.290 492.482, 2514.432 478.360 C 2490.491 390.733, 2429.649 340.411, 2332 327.469 C 2320.177 325.902, 2270.746 324.602, 2260.500 325.589 M 583.417 335.917 C 583.188 336.146, 583 476.659, 583 648.169 L 583 960.005 796.018 959.752 L 1009.037 959.500 1009.037 907 L 1009.037 854.500 859.018 854.247 L 709 853.994 709 771.997 L 709 690 840 690 L 971 690 971 637 L 971 584 840 584 L 709 584 709 513.003 L 709 442.007 851.750 441.753 L 994.500 441.500 994.500 388.740 L 994.500 335.981 789.167 335.740 C 676.233 335.608, 583.646 335.688, 583.417 335.917 M 1142.417 335.917 C 1142.187 336.146, 1142 476.676, 1142 648.205 L 1142 960.078 1283.750 959.720 C 1434.550 959.339, 1428.117 959.530, 1456.500 954.587 C 1526.431 942.405, 1578.144 909.800, 1614.161 855.181 C 1650.500 800.072, 1667.888 726.729, 1665.648 638 C 1662.993 532.791, 1638.169 458.112, 1589.071 407.631 C 1570.183 388.210, 1553.804 376.337, 1529.500 364.449 C 1493.592 346.886, 1453.840 337.710, 1408 336.404 C 1385.060 335.750, 1143.027 335.306, 1142.417 335.917 M 1794.417 335.917 C 1794.188 336.146, 1794 476.658, 1794 648.167 L 1794 960 1857.502 960 L 1921.003 960 1920.752 647.970 L 1920.500 335.941 1857.667 335.720 C 1823.109 335.599, 1794.646 335.688, 1794.417 335.917 M 2919.417 335.917 C 2919.187 336.146, 2919 476.658, 2919 648.167 L 2919 960 3098 960 L 3277 960 3277 933 L 3277 906 3128.002 906 L 2979.003 906 2978.752 620.969 L 2978.500 335.938 2949.167 335.719 C 2933.033 335.599, 2919.646 335.688, 2919.417 335.917 M 3575.080 336 C 3574.678 336.275, 3520.976 476, 3455.743 646.500 C 3390.510 817, 3336.833 957.288, 3336.461 958.250 C 3335.827 959.894, 3337.694 960, 3367.262 960 L 3398.739 960 3405.877 940.750 C 3409.803 930.163, 3426.246 885.725, 3442.417 842 L 3471.819 762.500 3611.606 762.247 C 3698.367 762.089, 3751.751 762.351, 3752.338 762.938 C 3752.857 763.457, 3770.504 807.896, 3791.552 861.691 L 3829.821 959.500 3862.982 959.764 C 3894.277 960.012, 3896.111 959.928, 3895.571 958.264 C 3895.257 957.294, 3838.412 816.864, 3769.250 646.197 L 3643.500 335.894 3609.655 335.697 C 3591.041 335.589, 3575.482 335.725, 3575.080 336 M 3997.417 335.917 C 3997.187 336.146, 3997 476.658, 3997 648.167 L 3997 960 4131.039 960 C 4218.213 960, 4268.474 959.631, 4274.789 958.945 C 4300.841 956.116, 4323.945 949.425, 4345.990 938.325 C 4401.710 910.268, 4434.082 861.279, 4439.116 797.398 C 4440.852 775.368, 4437.901 749.198, 4431.449 729.396 C 4427.522 717.345, 4417.796 698.479, 4410.567 688.890 C 4393.058 665.664, 4364.643 646.611, 4328.615 633.938 L 4320.731 631.165 4326.735 628.134 C 4330.038 626.467, 4337.411 621.975, 4343.120 618.152 C 4380.965 592.809, 4402.361 560, 4408.587 517.765 C 4410.807 502.705, 4410.044 473.110, 4407.060 458.500 C 4393.404 391.655, 4344.971 350.456, 4266 338.509 C 4260.225 337.636, 4247.850 336.680, 4238.500 336.387 C 4218.172 335.748, 3998.015 335.319, 3997.417 335.917 M 3607.628 382 C 3607.343 382.825, 3605.077 390.475, 3602.594 399 C 3588.320 447.992, 3579.123 474.096, 3530.721 603 C 3508.727 661.575, 3490.515 710.288, 3490.249 711.250 C 3489.792 712.910, 3496.041 713, 3611.383 713 C 3678.273 713, 3733 712.808, 3733 712.572 C 3733 712.337, 3714.506 665.200, 3691.903 607.822 C 3642.607 482.687, 3638.509 471.791, 3621.450 420.500 C 3614.133 398.500, 3607.913 381.175, 3607.628 382 M 4057 500.042 L 4057 610.084 4153.250 609.739 C 4248.277 609.397, 4249.623 609.365, 4259.199 607.186 C 4302.124 597.421, 4329.141 575.045, 4342.318 538.350 C 4345.908 528.351, 4348.004 516.527, 4348.673 502.500 C 4350.424 465.761, 4338.312 433.976, 4315.746 416.094 C 4298.969 402.800, 4273.353 394.155, 4241.576 391.063 C 4234.808 390.404, 4197.622 390, 4143.826 390 L 4057 390 4057 500.042 M 1268 648.005 L 1268 854.164 1332.750 853.714 C 1401.269 853.238, 1406.768 852.911, 1429.443 847.973 C 1487.528 835.323, 1517.696 799.533, 1528.965 729.903 C 1532.976 705.118, 1534.273 686.058, 1534.334 651 C 1534.425 598.821, 1530.342 565.690, 1520.012 534.794 C 1512.393 512.005, 1503.456 496.590, 1489.426 482.036 C 1469.423 461.286, 1446.604 450.866, 1407 444.394 C 1398.083 442.937, 1386.811 442.615, 1332.250 442.262 L 1268 441.846 1268 648.005 M 4057 784.445 L 4057 906 4156.039 906 C 4219.469 906, 4258.570 905.616, 4264.789 904.933 C 4312.731 899.666, 4346.678 878.631, 4364.737 843 C 4368.778 835.026, 4372.315 824.115, 4374.665 812.374 C 4377.135 800.030, 4377.152 770.050, 4374.696 757.790 C 4364.708 707.936, 4330.476 676.456, 4274.670 665.804 C 4263.813 663.732, 4260.606 663.661, 4160.250 663.281 L 4057 662.889 4057 784.445 M 576.684 1070.449 C 571.961 1072.133, 569.599 1074.218, 567.571 1078.492 C 564.080 1085.848, 567.406 1096.067, 574.367 1099.370 C 577.539 1100.875, 725.483 1101, 2503 1101 C 4277.200 1101, 4428.466 1100.873, 4431.619 1099.377 C 4436.649 1096.990, 4439.330 1092.621, 4439.788 1086.065 C 4440.274 1079.110, 4437.586 1074.562, 4431.030 1071.250 L 4426.576 1069 2503.538 1069.044 C 884.060 1069.081, 579.898 1069.303, 576.684 1070.449 M 1064.407 1203.031 C 1058.675 1204.167, 1053.664 1206.399, 1048.473 1210.127 C 1029.504 1223.749, 1026.691 1260.465, 1043.229 1278.560 C 1051.826 1287.967, 1062.031 1291.655, 1076.881 1290.720 C 1086.895 1290.090, 1095.285 1287.411, 1102.750 1282.461 L 1108 1278.980 1108 1261.990 L 1108 1245 1090.500 1245 L 1073 1245 1073 1250.468 L 1073 1255.937 1084.597 1256.218 L 1096.194 1256.500 1096.244 1265 L 1096.294 1273.500 1090.897 1276.245 C 1080.012 1281.781, 1067.659 1281.920, 1058.597 1276.609 C 1053.189 1273.440, 1051.613 1271.581, 1048.414 1264.593 C 1045.210 1257.595, 1044.089 1244.694, 1045.920 1235.883 C 1047.587 1227.856, 1052.493 1220.193, 1058.231 1216.654 C 1063.846 1213.190, 1074.274 1211.945, 1080.489 1213.996 C 1085.457 1215.636, 1091.220 1220.944, 1093.484 1225.965 C 1094.522 1228.267, 1095.990 1229.990, 1096.902 1229.976 C 1099.098 1229.943, 1106.040 1228.293, 1106.682 1227.651 C 1107.587 1226.746, 1102.436 1216.566, 1099.218 1212.901 C 1091.885 1204.549, 1077.426 1200.449, 1064.407 1203.031 M 2635.270 1202.991 C 2615.925 1207.098, 2604 1223.643, 2604 1246.379 C 2604 1267.226, 2612.599 1282.285, 2627.798 1288.058 C 2635.026 1290.803, 2648.707 1291.740, 2656.119 1289.998 C 2663.242 1288.324, 2672.713 1283.994, 2676.774 1280.554 L 2680.048 1277.781 2679.774 1261.641 L 2679.500 1245.500 2662 1245.500 L 2644.500 1245.500 2644.198 1250.750 L 2643.895 1256 2655.948 1256 L 2668 1256 2668 1264.515 L 2668 1273.029 2664.750 1275.012 C 2655.553 1280.623, 2641.463 1282.077, 2632.930 1278.297 C 2621.976 1273.443, 2616.777 1263.619, 2616.632 1247.500 C 2616.507 1233.656, 2618.479 1227.519, 2625.299 1220.518 C 2631.357 1214.300, 2636.118 1212.583, 2645.628 1213.189 C 2654.366 1213.745, 2660.502 1217.675, 2664.333 1225.167 L 2667.197 1230.767 2672.202 1229.447 C 2674.955 1228.721, 2677.450 1227.883, 2677.748 1227.586 C 2678.946 1226.387, 2674.591 1217.761, 2670.479 1213.187 C 2662.752 1204.593, 2647.935 1200.302, 2635.270 1202.991 M 2992.045 1203.029 C 2981.479 1205.250, 2970.964 1213.270, 2966.088 1222.827 C 2959.364 1236.007, 2959.365 1257.994, 2966.089 1271.174 C 2969.483 1277.827, 2976.404 1284.452, 2983.266 1287.615 C 2988.940 1290.231, 2990.488 1290.488, 3000.500 1290.480 C 3010.459 1290.472, 3012.032 1290.211, 3017.126 1287.722 C 3026.007 1283.381, 3033.425 1274.388, 3036.444 1264.302 C 3037.021 1262.372, 3036.578 1261.969, 3032.801 1260.993 C 3030.435 1260.381, 3027.817 1259.686, 3026.982 1259.447 C 3025.909 1259.140, 3024.939 1260.494, 3023.666 1264.077 C 3019.898 1274.688, 3011.171 1280.550, 2999.334 1280.423 C 2983.147 1280.249, 2973.734 1267.823, 2973.636 1246.500 C 2973.578 1233.847, 2975.887 1227.026, 2982.455 1220.445 C 2988.588 1214.299, 2993.948 1212.481, 3003.639 1213.259 C 3012.375 1213.960, 3017.427 1217.355, 3021.322 1225.141 L 3024.143 1230.781 3029.175 1229.454 C 3031.943 1228.724, 3034.450 1227.883, 3034.748 1227.586 C 3035.946 1226.387, 3031.591 1217.761, 3027.479 1213.187 C 3019.699 1204.535, 3004.971 1200.313, 2992.045 1203.029 M 3290.589 1203.118 C 3281.298 1205.298, 3275 1212.678, 3275 1221.388 C 3275 1226.514, 3276.640 1230.420, 3281.258 1236.296 C 3282.899 1238.384, 3284.074 1240.239, 3283.871 1240.419 C 3283.667 1240.599, 3281.986 1241.516, 3280.136 1242.458 C 3275.274 1244.931, 3268.137 1251.812, 3265.916 1256.165 C 3261.105 1265.595, 3264.992 1279.196, 3274.339 1285.637 C 3280.643 1289.982, 3285.910 1291.324, 3294.500 1290.773 C 3302.534 1290.258, 3308.941 1287.747, 3314.361 1282.988 L 3318.120 1279.687 3323.310 1284.651 C 3331.705 1292.682, 3331.116 1292.551, 3335.458 1287.356 L 3339.287 1282.776 3335.894 1280.138 C 3334.027 1278.688, 3330.863 1276.032, 3328.863 1274.236 L 3325.227 1270.972 3328.589 1264.231 C 3330.439 1260.523, 3332.231 1256.094, 3332.572 1254.388 C 3333.171 1251.394, 3333.035 1251.246, 3328.654 1250.143 C 3326.157 1249.514, 3323.693 1249, 3323.179 1249 C 3322.665 1249, 3321.222 1251.733, 3319.973 1255.073 C 3317.359 1262.061, 3318.608 1262.585, 3308.006 1250.054 L 3301.706 1242.607 3304.103 1241.095 C 3309.753 1237.531, 3316.807 1229.451, 3317.935 1225.250 C 3320.340 1216.298, 3314.289 1206.351, 3304.707 1203.506 C 3299.084 1201.836, 3296.373 1201.761, 3290.589 1203.118 M 3477 1203.540 C 3462.150 1207.691, 3454.615 1219.283, 3458.370 1232.201 C 3461.183 1241.877, 3467.437 1245.898, 3487.680 1251.046 C 3494.156 1252.693, 3501.040 1254.849, 3502.978 1255.839 C 3509.443 1259.140, 3511.600 1267.383, 3507.598 1273.491 C 3503.165 1280.257, 3486.900 1282.638, 3477.377 1277.917 C 3471.916 1275.209, 3468.470 1270.754, 3466.845 1264.298 C 3465.625 1259.455, 3465.951 1259.585, 3459.037 1261.181 C 3454.032 1262.336, 3453.934 1262.429, 3454.535 1265.431 C 3456.526 1275.370, 3464.855 1285.344, 3473.805 1288.510 C 3481.329 1291.171, 3494.630 1291.617, 3501.550 1289.440 C 3513.786 1285.592, 3520.934 1276.654, 3520.977 1265.151 C 3521.004 1257.629, 3519.189 1253.252, 3514.242 1248.908 C 3509.563 1244.799, 3504.975 1242.932, 3490 1239.040 C 3483.125 1237.253, 3476.290 1235.166, 3474.811 1234.401 C 3467.074 1230.403, 3467.051 1220.604, 3474.767 1215.835 C 3478.971 1213.237, 3490.078 1212.211, 3495.309 1213.937 C 3499.876 1215.444, 3504.599 1220.797, 3506.021 1226.079 C 3506.965 1229.585, 3507.446 1230.108, 3509.313 1229.661 C 3510.516 1229.372, 3513.211 1228.826, 3515.303 1228.447 C 3518.945 1227.787, 3519.078 1227.625, 3518.446 1224.629 C 3517.410 1219.719, 3512.851 1211.988, 3509.471 1209.410 C 3501.128 1203.046, 3487.549 1200.592, 3477 1203.540 M 3602 1203.330 C 3591.873 1205.693, 3583.679 1211.245, 3577.882 1219.672 C 3568.629 1233.120, 3567.660 1255.417, 3575.686 1270.165 C 3579.225 1276.668, 3587.694 1284.501, 3594.747 1287.795 C 3599.853 1290.180, 3601.681 1290.481, 3611 1290.467 C 3623.763 1290.449, 3630.297 1288.235, 3637.977 1281.330 C 3647.571 1272.705, 3652 1261.710, 3652 1246.516 C 3652 1226.188, 3642.707 1211.256, 3626.138 1204.960 C 3619.453 1202.420, 3608.940 1201.710, 3602 1203.330 M 4132.176 1203.070 C 4115.220 1206.407, 4102.701 1220.396, 4099.928 1239.103 C 4096.908 1259.477, 4106.245 1279.072, 4122.874 1287.259 C 4129.091 1290.319, 4130.072 1290.500, 4140.479 1290.500 C 4150.343 1290.500, 4152.100 1290.219, 4157.218 1287.820 C 4163.890 1284.693, 4171.905 1277.545, 4175.370 1271.631 C 4182.932 1258.728, 4183.627 1239.487, 4177.043 1225.320 C 4169.149 1208.335, 4151.044 1199.357, 4132.176 1203.070 M 4376.137 1203.016 C 4369.651 1204.381, 4362.118 1209.061, 4358.607 1213.907 C 4355.769 1217.825, 4355.500 1218.866, 4355.500 1225.921 C 4355.500 1232.588, 4355.860 1234.190, 4358.129 1237.619 C 4361.755 1243.099, 4369.830 1247.130, 4385 1251.035 C 4391.875 1252.805, 4398.698 1254.862, 4400.162 1255.607 C 4407.201 1259.186, 4409.308 1268.104, 4404.472 1273.851 C 4399.864 1279.327, 4388.972 1281.793, 4378.729 1279.679 C 4371.902 1278.271, 4364.088 1269.010, 4364.022 1262.250 C 4363.997 1259.661, 4363.817 1259.631, 4357.049 1261.083 C 4351.213 1262.335, 4350.940 1263.189, 4353.893 1270.960 C 4356.825 1278.676, 4361.248 1283.504, 4368.784 1287.215 C 4375.102 1290.326, 4376.039 1290.500, 4386.478 1290.500 C 4395.866 1290.500, 4398.241 1290.159, 4402.500 1288.199 C 4412.940 1283.394, 4418.404 1275.426, 4418.463 1264.922 C 4418.495 1259.304, 4418.057 1257.627, 4415.465 1253.434 C 4411.423 1246.897, 4404.404 1243.324, 4387.211 1239.051 C 4372.276 1235.339, 4368.035 1233.083, 4366.765 1228.177 C 4364.663 1220.055, 4372.925 1212.980, 4384.462 1213.022 C 4395.016 1213.060, 4401.849 1217.997, 4403.623 1226.865 C 4404.338 1230.442, 4404.152 1230.391, 4410.924 1228.828 C 4416.920 1227.444, 4417.241 1226.208, 4413.626 1218.444 C 4410.806 1212.387, 4404.469 1206.689, 4398.167 1204.541 C 4392.339 1202.555, 4381.797 1201.826, 4376.137 1203.016 M 583 1247 L 583 1290 611 1290 L 639 1290 639 1284.500 L 639 1279 617 1279 L 595 1279 595 1265 L 595 1251 614.500 1251 L 634 1251 634 1245.500 L 634 1240 614.500 1240 L 595 1240 595 1227.500 L 595 1215 616 1215 L 637 1215 637 1209.500 L 637 1204 610 1204 L 583 1204 583 1247 M 692 1246.952 L 692 1290 697.487 1290 L 702.973 1290 703.237 1257.052 L 703.500 1224.104 724.521 1256.802 L 745.541 1289.500 751.771 1289.798 L 758 1290.095 758 1247.048 L 758 1204 752 1204 L 746 1204 746 1236.635 L 746 1269.269 725.207 1236.885 L 704.414 1204.500 698.207 1204.202 L 692 1203.905 692 1246.952 M 814 1247 L 814 1290 842 1290 L 870 1290 870 1284.500 L 870 1279 848 1279 L 826 1279 826 1265 L 826 1251 845.500 1251 L 865 1251 865 1245.500 L 865 1240 845.500 1240 L 826 1240 826 1227.500 L 826 1215 847 1215 L 868 1215 868 1209.500 L 868 1204 841 1204 L 814 1204 814 1247 M 923 1247 L 923 1290 929 1290 L 935 1290 935 1271.500 L 935 1253 942.250 1253.022 C 950.953 1253.048, 956.603 1255.282, 960.260 1260.141 C 961.651 1261.989, 965.764 1269.463, 969.401 1276.750 L 976.014 1290 982.590 1290 C 986.207 1290, 989.011 1289.662, 988.822 1289.250 C 983.592 1277.880, 972.096 1257.005, 969.452 1254.079 L 965.926 1250.175 968.846 1249.534 C 972.978 1248.626, 979.940 1242.341, 982.114 1237.556 C 985.973 1229.060, 984.040 1217.776, 977.627 1211.364 C 971.254 1204.991, 966.570 1204, 942.818 1204 L 923 1204 923 1247 M 1149 1204.427 C 1149 1204.662, 1155.862 1215.349, 1164.250 1228.177 L 1179.500 1251.500 1180 1270.500 L 1180.500 1289.500 1186.250 1289.800 L 1192 1290.100 1192 1272.035 L 1192 1253.969 1207.814 1230.235 C 1216.512 1217.181, 1223.964 1205.938, 1224.373 1205.250 C 1224.940 1204.299, 1223.460 1204, 1218.175 1204 L 1211.233 1204 1200.699 1220.750 C 1194.905 1229.963, 1189.605 1238.737, 1188.922 1240.250 C 1187.382 1243.657, 1186.640 1243.700, 1185.166 1240.464 C 1184.530 1239.069, 1179.257 1230.294, 1173.449 1220.964 L 1162.887 1204 1155.944 1204 C 1152.125 1204, 1149 1204.192, 1149 1204.427 M 1342.239 1246.680 L 1342.500 1289.500 1362.500 1289.440 C 1380.726 1289.385, 1383.001 1289.182, 1388.147 1287.156 C 1402.919 1281.341, 1411 1267.085, 1411 1246.839 C 1411 1226.982, 1404.373 1213.768, 1391.161 1207.280 C 1385.576 1204.537, 1385.208 1204.496, 1363.739 1204.180 L 1341.978 1203.860 1342.239 1246.680 M 1483.534 1205.707 C 1477.801 1220.114, 1452 1288.269, 1452 1289.003 C 1452 1289.553, 1454.650 1290, 1457.909 1290 L 1463.819 1290 1468.576 1277 L 1473.333 1264 1490.917 1264.006 L 1508.500 1264.012 1513.500 1276.756 L 1518.500 1289.500 1524.871 1289.801 C 1531.081 1290.094, 1531.228 1290.043, 1530.664 1287.801 C 1530.346 1286.535, 1522.674 1267.275, 1513.616 1245 L 1497.146 1204.500 1490.696 1204.207 C 1485.261 1203.960, 1484.135 1204.196, 1483.534 1205.707 M 1562 1209.500 L 1562 1215 1575.500 1215 L 1589 1215 1589 1252.500 L 1589 1290 1595 1290 L 1601 1290 1601 1252.500 L 1601 1215 1614.500 1215 L 1628 1215 1628 1209.500 L 1628 1204 1595 1204 L 1562 1204 1562 1209.500 M 1691 1204.293 C 1691 1204.504, 1683.800 1223.483, 1675 1246.469 C 1666.200 1269.454, 1659 1288.673, 1659 1289.178 C 1659 1289.683, 1661.755 1289.961, 1665.122 1289.798 L 1671.244 1289.500 1675.822 1276.750 L 1680.400 1264 1698.033 1264 L 1715.666 1264 1720.592 1276.750 L 1725.518 1289.500 1732.385 1289.799 C 1737.713 1290.030, 1739.128 1289.806, 1738.702 1288.799 C 1738.399 1288.084, 1730.529 1268.825, 1721.212 1246 L 1704.273 1204.500 1697.636 1204.204 C 1693.986 1204.042, 1691 1204.082, 1691 1204.293 M 1924 1247 L 1924 1290 1930 1290 L 1936 1290 1936 1247 L 1936 1204 1930 1204 L 1924 1204 1924 1247 M 1992 1246.952 L 1992 1290 1997.487 1290 L 2002.973 1290 2003.237 1256.961 L 2003.500 1223.922 2024.583 1256.711 L 2045.667 1289.500 2051.833 1289.798 L 2058 1290.095 2058 1247.048 L 2058 1204 2051.973 1204 L 2045.946 1204 2046.223 1236.451 C 2046.375 1254.299, 2046.159 1268.560, 2045.742 1268.143 C 2045.325 1267.726, 2035.866 1253.235, 2024.721 1235.942 L 2004.457 1204.500 1998.229 1204.202 L 1992 1203.905 1992 1246.952 M 2107 1209.500 L 2107 1215 2120.500 1215 L 2134 1215 2134 1252.500 L 2134 1290 2140 1290 L 2146 1290 2146 1252.500 L 2146 1215 2159.500 1215 L 2173 1215 2173 1209.500 L 2173 1204 2140 1204 L 2107 1204 2107 1209.500 M 2222 1247 L 2222 1290 2249.903 1290 L 2277.807 1290 2278.153 1284.916 C 2278.344 1282.120, 2278.313 1279.645, 2278.083 1279.416 C 2277.854 1279.187, 2267.842 1279, 2255.833 1279 L 2234 1279 2234 1265 L 2234 1251 2253.500 1251 L 2273 1251 2273 1245.500 L 2273 1240 2253.500 1240 L 2234 1240 2234 1227.500 L 2234 1215 2255 1215 L 2276 1215 2276 1209.500 L 2276 1204 2249 1204 L 2222 1204 2222 1247 M 2331 1247 L 2331 1290 2358 1290 L 2385 1290 2385 1284.500 L 2385 1279 2364 1279 L 2343 1279 2343 1241.500 L 2343 1204 2337 1204 L 2331 1204 2331 1247 M 2435.239 1246.750 L 2435.500 1289.500 2462.500 1289.500 L 2489.500 1289.500 2489.500 1284.500 L 2489.500 1279.500 2468.500 1279.231 L 2447.500 1278.962 2447.774 1241.481 L 2448.047 1204 2441.513 1204 L 2434.979 1204 2435.239 1246.750 M 2540 1247 L 2540 1290 2546 1290 L 2552 1290 2552 1247 L 2552 1204 2546 1204 L 2540 1204 2540 1247 M 2734 1247 L 2734 1290 2762 1290 L 2790 1290 2790 1284.500 L 2790 1279 2768 1279 L 2746 1279 2746 1265 L 2746 1251 2765.500 1251 L 2785 1251 2785 1245.500 L 2785 1240 2765.500 1240 L 2746 1240 2746 1227.500 L 2746 1215 2767 1215 L 2788 1215 2788 1209.500 L 2788 1204 2761 1204 L 2734 1204 2734 1247 M 2843 1246.952 L 2843 1290 2848.487 1290 L 2853.973 1290 2854.237 1257.052 L 2854.500 1224.104 2875.521 1256.802 L 2896.541 1289.500 2902.771 1289.798 L 2909 1290.095 2909 1247.048 L 2909 1204 2903 1204 L 2897 1204 2897 1236.635 L 2897 1269.269 2876.207 1236.885 L 2855.414 1204.500 2849.207 1204.202 L 2843 1203.905 2843 1246.952 M 3088 1247 L 3088 1290 3116 1290 L 3144 1290 3144 1284.500 L 3144 1279 3122 1279 L 3100 1279 3100 1265 L 3100 1251 3119.500 1251 L 3139 1251 3139 1245.500 L 3139 1240 3119.500 1240 L 3100 1240 3100 1227.500 L 3100 1215 3121 1215 L 3142 1215 3142 1209.500 L 3142 1204 3115 1204 L 3088 1204 3088 1247 M 3704.239 1246.702 L 3704.500 1289.500 3731.250 1289.766 L 3758 1290.033 3758 1284.516 L 3758 1279 3737.250 1279 L 3716.500 1279.001 3716.500 1241.750 L 3716.500 1204.500 3710.239 1204.202 L 3703.978 1203.904 3704.239 1246.702 M 3805.239 1235.250 C 3805.561 1261.037, 3805.922 1267.389, 3807.305 1271.586 C 3809.879 1279.399, 3814.021 1284.372, 3820.677 1287.641 C 3826.058 1290.283, 3827.372 1290.500, 3838 1290.500 C 3851.493 1290.500, 3855.588 1289.343, 3861.553 1283.845 C 3870.321 1275.762, 3871.952 1267.379, 3871.980 1230.250 L 3872 1204 3865.500 1204 L 3859 1204 3858.994 1233.750 C 3858.991 1251.424, 3858.563 1265.033, 3857.940 1267.277 C 3856.399 1272.826, 3851.828 1277.508, 3846.495 1279.001 C 3840.361 1280.719, 3830.054 1279.816, 3825.812 1277.189 C 3818.265 1272.516, 3817.018 1265.866, 3817.008 1230.250 L 3817 1204 3810.925 1204 L 3804.849 1204 3805.239 1235.250 M 3920 1209.500 L 3920 1215 3933.500 1215 L 3947 1215 3947 1252.500 L 3947 1290 3953 1290 L 3959 1290 3959 1252.500 L 3959 1215 3972.500 1215 L 3986 1215 3986 1209.500 L 3986 1204 3953 1204 L 3920 1204 3920 1209.500 M 4035.239 1246.750 L 4035.500 1289.500 4041.250 1289.800 L 4047 1290.100 4047 1247.050 L 4047 1204 4040.989 1204 L 4034.979 1204 4035.239 1246.750 M 4234 1246.952 L 4234 1290 4239.487 1290 L 4244.973 1290 4245.237 1257.110 L 4245.500 1224.220 4266.502 1256.860 L 4287.504 1289.500 4293.502 1289.500 L 4299.500 1289.500 4299.761 1246.750 L 4300.021 1204 4294.011 1204 L 4288 1204 4288 1236.668 L 4288 1269.335 4267.167 1236.918 L 4246.334 1204.500 4240.167 1204.202 L 4234 1203.905 4234 1246.952 M 3288.923 1214.923 C 3284.654 1219.193, 3285.273 1222.835, 3291.574 1230.525 L 3295.125 1234.859 3298.551 1232.837 C 3307.198 1227.736, 3309.483 1220.329, 3304.077 1214.923 C 3301.684 1212.530, 3300.310 1212, 3296.500 1212 C 3292.690 1212, 3291.316 1212.530, 3288.923 1214.923 M 3602.994 1213.934 C 3595.386 1216.249, 3589.349 1221.730, 3585.852 1229.500 C 3582.769 1236.352, 3582.030 1252.510, 3584.449 1260.192 C 3589.476 1276.157, 3604.082 1283.799, 3620.500 1279.055 C 3627.368 1277.071, 3635.005 1269.433, 3637.584 1261.968 C 3640.385 1253.859, 3640.114 1238.520, 3637.030 1230.582 C 3634.192 1223.278, 3627.846 1216.817, 3621.329 1214.597 C 3616.467 1212.940, 3607.346 1212.610, 3602.994 1213.934 M 4130.748 1214.367 C 4117.829 1219.184, 4111.207 1231.932, 4112.239 1250 C 4112.856 1260.802, 4115.600 1267.416, 4121.913 1273.322 C 4127.464 1278.515, 4132.317 1280.349, 4140.500 1280.349 C 4148.683 1280.349, 4153.536 1278.515, 4159.087 1273.322 C 4166.476 1266.410, 4168.462 1260.848, 4168.483 1247 C 4168.499 1236.468, 4168.264 1234.995, 4165.692 1229.503 C 4162.365 1222.397, 4160.012 1219.699, 4154.117 1216.232 C 4148.738 1213.068, 4136.788 1212.115, 4130.748 1214.367 M 935 1228.598 L 935 1242.196 948.250 1241.822 C 962.678 1241.415, 966.464 1240.274, 969.680 1235.366 C 971.877 1232.013, 971.799 1223.869, 969.538 1220.417 C 966.695 1216.079, 962.410 1215, 948.032 1215 L 935 1215 935 1228.598 M 1354.777 1247.043 L 1355.055 1279.263 1367.777 1278.768 C 1380.419 1278.275, 1383.690 1277.506, 1389.278 1273.711 C 1400.355 1266.188, 1402.032 1232.572, 1391.850 1222.157 C 1386.052 1216.228, 1383.863 1215.574, 1368.500 1215.180 L 1354.500 1214.822 1354.777 1247.043 M 1487.369 1224.799 C 1485.661 1230.135, 1482.638 1238.888, 1480.650 1244.250 L 1477.036 1254 1490.909 1254 L 1504.782 1254 1500.734 1243.750 C 1498.507 1238.112, 1495.288 1229.360, 1493.580 1224.299 L 1490.474 1215.099 1487.369 1224.799 M 1693.708 1226.954 C 1691.623 1233.304, 1688.598 1241.987, 1686.986 1246.250 L 1684.055 1254 1697.940 1254 L 1711.825 1254 1708.794 1246.250 C 1707.127 1241.987, 1703.904 1233.304, 1701.632 1226.954 L 1697.500 1215.408 1693.708 1226.954 M 3285.184 1251.562 C 3278.660 1255.955, 3276.009 1260.092, 3276.004 1265.882 C 3275.996 1275.089, 3284.294 1281.836, 3294.186 1280.664 C 3299.297 1280.059, 3306.135 1276.719, 3309.203 1273.328 C 3310.830 1271.531, 3310.479 1270.936, 3301.202 1259.786 C 3295.866 1253.372, 3291.269 1248.096, 3290.987 1248.062 C 3290.704 1248.028, 3288.093 1249.603, 3285.184 1251.562 M 1784.204 1282.750 L 1784.500 1289.500 1787.830 1289.819 C 1790.323 1290.058, 1791.015 1290.519, 1790.580 1291.651 C 1790.261 1292.483, 1790 1293.836, 1790 1294.659 C 1790 1295.481, 1788.657 1297.496, 1787.017 1299.137 C 1784.163 1301.991, 1784.102 1302.227, 1785.632 1304.560 C 1787.570 1307.519, 1787.470 1307.514, 1791.212 1304.849 C 1796.066 1301.393, 1797.953 1295.928, 1797.978 1285.250 L 1798 1276 1790.954 1276 L 1783.909 1276 1784.204 1282.750" stroke="none" fill="#000000" fill-rule="evenodd"/></svg>