<svg xmlns="http://www.w3.org/2000/svg" width="4000" height="4000" viewBox="0 0 4000 4000" version="1.1"><path d="M 401 1796.747 L 401 3191.493 456 3136.500 L 511 3081.507 511 1796.753 L 511 512 1795.753 512 L 3080.507 512 3135.500 457 L 3190.493 402 1795.747 402 L 401 402 401 1796.747 M 3542.747 866.753 L 3488 921.507 3488 2205.253 L 3488 3489 2204.247 3489 L 920.493 3489 865.500 3544 L 810.507 3599 2204.253 3599 L 3598 3599 3598 2205.500 C 3598 1439.075, 3597.886 812, 3597.747 812 C 3597.607 812, 3572.857 836.639, 3542.747 866.753 M 2886.500 1057.076 C 2820.454 1063.157, 2767.429 1081.587, 2725.500 1113.034 C 2691.016 1138.897, 2665.922 1175.265, 2654.108 1216.500 C 2638.474 1271.072, 2646.164 1340.650, 2672.787 1385.500 C 2682.768 1402.314, 2699.804 1421.495, 2717.018 1435.303 C 2760.360 1470.067, 2815.764 1493.644, 2905.584 1515.547 C 2977.318 1533.040, 3018.893 1546.578, 3042.581 1560.158 C 3069.112 1575.367, 3079.196 1589.608, 3083.536 1618 C 3087.117 1641.423, 3083.749 1662.945, 3073.877 1679.723 C 3069.278 1687.539, 3053.113 1703.732, 3044.158 1709.493 C 3025.025 1721.801, 3001.533 1729.673, 2972.630 1733.462 C 2957.288 1735.473, 2924.859 1735.492, 2909.656 1733.499 C 2864.166 1727.536, 2832.924 1709.216, 2809.879 1674.988 C 2798.053 1657.426, 2786.138 1627.405, 2780.512 1601 C 2779.047 1594.125, 2777.545 1587.797, 2777.174 1586.938 C 2776.579 1585.558, 2767.285 1586.504, 2697.749 1595.022 C 2654.435 1600.328, 2618.777 1604.890, 2618.507 1605.159 C 2617.770 1605.896, 2622.531 1631.817, 2625.974 1645.817 C 2646.398 1728.861, 2691.549 1790.592, 2759.893 1828.914 C 2795.372 1848.808, 2835.980 1860.984, 2887.500 1867.178 C 2904.855 1869.264, 2970.514 1868.967, 2989 1866.718 C 3071.957 1856.627, 3133.715 1830.883, 3178.694 1787.643 C 3211.272 1756.324, 3230.493 1721.691, 3238.987 1679 C 3243.117 1658.243, 3244.382 1641.395, 3243.715 1616.034 C 3242.704 1577.595, 3237.473 1549.539, 3225.898 1520.478 C 3206.131 1470.851, 3161.049 1432.094, 3089.498 1403.215 C 3057.236 1390.194, 3028.925 1381.632, 2971.403 1367.500 C 2916.848 1354.098, 2891.140 1346.577, 2866.720 1336.877 C 2829.380 1322.044, 2809.757 1304.836, 2803.472 1281.408 C 2801.309 1273.349, 2801.318 1256.392, 2803.489 1248 C 2809.496 1224.777, 2828.498 1207.418, 2859.735 1196.617 C 2899.015 1183.035, 2959.788 1184.747, 2997.110 1200.487 C 3034.650 1216.320, 3054.079 1245.076, 3062.486 1297.250 C 3062.987 1300.360, 3063.496 1301, 3065.463 1301 C 3068.806 1301, 3221.389 1283.945, 3221.809 1283.524 C 3222.473 1282.861, 3218.872 1265.375, 3214.929 1250.109 C 3188.688 1148.519, 3118.396 1084.047, 3011 1063.062 C 2985.098 1058.001, 2971.317 1056.839, 2933 1056.489 C 2912.925 1056.305, 2892 1056.569, 2886.500 1057.076 M 755 1462.500 L 755 1856 1024 1856 L 1293 1856 1293 1789 L 1293 1722 1103.500 1722 L 914 1722 914 1619.003 L 914 1516.006 1079.250 1515.753 L 1244.500 1515.500 1244.757 1448.750 L 1245.014 1382 1079.507 1382 L 914 1382 914 1292.500 L 914 1203 1094 1203 L 1274 1203 1274 1136 L 1274 1069 1014.500 1069 L 755 1069 755 1462.500 M 1468 1462.500 L 1468 1856.068 1644.250 1855.710 C 1801.211 1855.391, 1821.977 1855.169, 1834 1853.686 C 1907.283 1844.644, 1960.604 1824.511, 2005 1789.121 C 2063.906 1742.164, 2104.968 1664.739, 2120.413 1571.500 C 2126.199 1536.571, 2128.250 1508.977, 2128.217 1466.500 C 2128.171 1404.759, 2122.880 1357.005, 2110.823 1309.500 C 2086.344 1213.045, 2037.397 1146.504, 1962.500 1107.858 C 1924.987 1088.502, 1889.821 1078.389, 1835.500 1071.336 C 1823.825 1069.820, 1804.428 1069.612, 1645.250 1069.290 L 1468 1068.932 1468 1462.500 M 2299 1462.500 L 2299 1856 2378.500 1856 L 2458 1856 2458 1462.500 L 2458 1069 2378.500 1069 L 2299 1069 2299 1462.500 M 1627 1462.500 L 1627 1722 1703.250 1721.997 C 1747.965 1721.995, 1784.256 1721.563, 1791 1720.953 C 1887.566 1712.221, 1934.386 1671.972, 1953.359 1581.382 C 1956.370 1567.005, 1958.537 1552.404, 1960.619 1532.463 C 1962.754 1512.012, 1963.643 1440.764, 1962.058 1417.143 C 1958.444 1363.304, 1949.434 1323.849, 1933.471 1291.962 C 1906.960 1239.003, 1863.237 1212.050, 1791.641 1204.532 C 1779.907 1203.299, 1762.393 1203, 1702.028 1203 L 1627 1203 1627 1462.500 M 801 2560.500 L 801 2943 1020.514 2943 L 1240.027 2943 1239.764 2910.250 L 1239.500 2877.500 1057.250 2877.247 L 875 2876.995 875 2527.497 L 875 2178 838 2178 L 801 2178 801 2560.500 M 1726.519 2559.250 C 1646.301 2768.938, 1580.469 2941.063, 1580.227 2941.750 C 1579.879 2942.736, 1587.907 2943, 1618.233 2943 L 1656.679 2943 1699.485 2827.250 C 1723.027 2763.588, 1743.187 2709.137, 1744.284 2706.250 L 1746.278 2701 1918.389 2701.018 L 2090.500 2701.037 2137.683 2821.768 L 2184.865 2942.500 2225.520 2942.761 C 2252.401 2942.934, 2266.060 2942.682, 2265.837 2942.019 C 2265.652 2941.466, 2195.975 2769.347, 2111 2559.531 L 1956.500 2178.046 1914.435 2178.023 L 1872.370 2178 1726.519 2559.250 M 2656 2560.481 L 2656 2943.050 2825.250 2942.746 L 2994.500 2942.443 3008.369 2940.180 C 3036.932 2935.519, 3058.783 2928.686, 3082.500 2916.996 C 3153.106 2882.197, 3194.322 2817.598, 3197.662 2736.500 C 3199.950 2680.931, 3183.071 2630.942, 3150.654 2597.286 C 3129.607 2575.434, 3103.723 2559.460, 3066.688 2545.467 L 3052.877 2540.249 3060.688 2535.992 C 3087.627 2521.314, 3111.613 2501.230, 3128.155 2479.500 C 3154.112 2445.405, 3165.535 2400.288, 3160.943 2350 C 3156.965 2306.427, 3141.023 2269.592, 3114.070 2241.694 C 3081.120 2207.589, 3038.495 2188.776, 2975 2180.317 C 2963.913 2178.839, 2945.180 2178.609, 2809.250 2178.281 L 2656 2177.911 2656 2560.481 M 1912.749 2234.622 C 1912.459 2235.105, 1911.226 2239.100, 1910.011 2243.500 C 1905.547 2259.652, 1890.834 2306.295, 1881.148 2335 C 1869.832 2368.535, 1862.547 2388.300, 1807.612 2534.500 L 1768.159 2639.500 1916.743 2639.753 C 1998.464 2639.893, 2065.517 2639.816, 2065.749 2639.584 C 2065.982 2639.352, 2042.555 2579.163, 2013.689 2505.831 C 1949.736 2343.360, 1943.465 2326.536, 1923.425 2263.685 C 1914.347 2235.211, 1913.606 2233.195, 1912.749 2234.622 M 2730 2378.940 L 2730 2514 2842.276 2514 C 2914.852 2514, 2957.549 2513.628, 2963.026 2512.947 C 2998.499 2508.540, 3027.926 2495.130, 3049.528 2473.528 C 3067.891 2455.165, 3078.984 2433.380, 3084.678 2404.500 C 3087.233 2391.538, 3087.212 2359.324, 3084.638 2345.500 C 3079.726 2319.113, 3070.553 2300.493, 3054.546 2284.421 C 3033.720 2263.510, 3006.349 2252.369, 2961 2246.346 C 2950.184 2244.909, 2933.780 2244.631, 2839.250 2244.283 L 2730 2243.880 2730 2378.940 M 2730 2727.940 L 2730 2877 2851.256 2877 C 2952.103 2877, 2974.648 2876.750, 2985.201 2875.516 C 3027.386 2870.581, 3057.380 2857.506, 3081.582 2833.500 C 3100.801 2814.436, 3112.436 2792.289, 3118.217 2763.763 C 3120.218 2753.890, 3120.500 2749.539, 3120.498 2728.500 C 3120.497 2709.242, 3120.137 2702.729, 3118.676 2695.536 C 3105.912 2632.694, 3061.569 2593.128, 2991.258 2581.842 C 2977.707 2579.667, 2975.637 2579.628, 2853.750 2579.257 L 2730 2578.880 2730 2727.940" stroke="none" fill="#000000" fill-rule="evenodd"/></svg>