<svg xmlns="http://www.w3.org/2000/svg" width="5000" height="1268" viewBox="0 0 5000 1268" version="1.1"><path d="M 2204.500 311.603 C 2157.171 316.292, 2132.844 322.571, 2101.500 338.191 C 2083.458 347.181, 2069.840 357.003, 2055.426 371.422 C 2032.126 394.728, 2018.855 419.201, 2011.999 451.500 C 2009.264 464.386, 2008.204 493.891, 2009.933 509.007 C 2013.125 536.916, 2021.559 560.819, 2035.321 580.957 C 2042.164 590.969, 2060.205 609.050, 2072 617.715 C 2106.082 642.754, 2144.585 658.547, 2214 675.959 C 2293.081 695.795, 2321.818 706.610, 2339.574 723.219 C 2350.218 733.175, 2355.508 746.734, 2356.656 767 C 2359.071 809.670, 2329.784 838.551, 2274.481 848.038 C 2259.321 850.638, 2231.154 851.163, 2217 849.108 C 2169.687 842.241, 2141.085 818.545, 2123.602 771.733 C 2120.632 763.781, 2116.511 748.572, 2113.444 734.250 C 2113.062 732.467, 2112.292 732.010, 2109.731 732.047 C 2104.015 732.132, 1988.067 746.600, 1987.348 747.319 C 1986.966 747.701, 1987.460 752.622, 1988.445 758.256 C 2002.733 839.979, 2043.875 898.068, 2110.490 930.574 C 2147.361 948.566, 2188.308 956.979, 2239 956.979 C 2279.717 956.979, 2313.415 951.783, 2349.253 939.978 C 2385.763 927.951, 2412.984 911.382, 2436.500 886.869 C 2457.367 865.118, 2469.889 843.080, 2476.956 815.669 C 2481.272 798.931, 2483 783.785, 2483 762.693 C 2483 717.758, 2474.128 683.011, 2455.502 655 C 2449.203 645.527, 2429.038 625.299, 2418.314 617.696 C 2382.209 592.101, 2340.323 576.005, 2259 556.475 C 2182.037 537.992, 2147.900 521.885, 2137.046 498.933 C 2129.531 483.044, 2131.098 461.997, 2140.838 448 C 2151.471 432.717, 2176.616 420.459, 2204.538 416.944 C 2216.999 415.376, 2249.397 416.244, 2261.500 418.472 C 2287.362 423.231, 2307.373 434.157, 2319.472 450.124 C 2328.266 461.729, 2335.662 480.672, 2338.261 498.250 C 2339.264 505.032, 2339.663 505.997, 2341.454 505.977 C 2345.333 505.933, 2465.115 492.218, 2465.567 491.767 C 2466.259 491.074, 2462.356 472.804, 2458.915 460.629 C 2437.089 383.414, 2383.163 334.321, 2301.731 317.532 C 2279.406 312.929, 2268.151 311.878, 2237.500 311.533 C 2221.550 311.354, 2206.700 311.385, 2204.500 311.603 M 528.669 321.664 C 528.301 322.032, 528 462.658, 528 634.167 L 528 946 741.500 946 L 955 946 955 893 L 955 840 804.500 840 L 654 840 654 758 L 654 676 785.500 676 L 917 676 917 623 L 917 570 785.500 570 L 654 570 654 499 L 654 428 797.009 428 L 940.018 428 939.759 374.750 L 939.500 321.500 734.419 321.248 C 621.625 321.109, 529.037 321.296, 528.669 321.664 M 1087.738 321.595 C 1087.332 322.001, 1087 462.674, 1087 634.202 L 1087 946.071 1229.250 945.732 C 1367.854 945.401, 1371.872 945.338, 1386 943.279 C 1461.224 932.317, 1512.464 904.755, 1549.783 855.180 C 1582.294 811.992, 1600.466 762.181, 1608.584 694 C 1610.761 675.719, 1611.621 619.667, 1610.066 597.380 C 1602.542 489.501, 1569.874 416.461, 1508.622 370.567 C 1473.678 344.384, 1430.249 329.289, 1371.500 322.907 C 1359.068 321.556, 1089.026 320.308, 1087.738 321.595 M 1740 633.374 L 1740 945.762 1790.250 946.458 C 1817.888 946.840, 1846.125 947.006, 1853 946.826 L 1865.500 946.500 1865.500 634 L 1865.500 321.500 1802.750 321.242 L 1740 320.985 1740 633.374 M 2864.667 321.667 C 2864.300 322.033, 2864 462.658, 2864 634.167 L 2864 946 3043 946 L 3222 946 3222 919 L 3222 892 3073 892 L 2924 892 2924 606.500 L 2924 321 2894.667 321 C 2878.533 321, 2865.033 321.300, 2864.667 321.667 M 3520.313 322.250 C 3519.111 324.114, 3281.315 945.418, 3281.579 946 C 3281.705 946.275, 3295.904 946.275, 3313.134 946 L 3344.462 945.500 3378.673 853 C 3397.489 802.125, 3413.834 757.913, 3414.996 754.750 L 3417.107 749 3557.804 749.026 L 3698.500 749.052 3736.949 847.500 L 3775.399 945.948 3808.295 946.224 C 3826.389 946.376, 3841.306 946.275, 3841.444 946 C 3841.720 945.451, 3589.999 324.233, 3588.691 322.236 C 3587.512 320.435, 3521.473 320.449, 3520.313 322.250 M 3943 633.500 L 3943 946 4077.039 946 C 4164.213 946, 4214.474 945.631, 4220.789 944.945 C 4278.223 938.709, 4327.574 911.063, 4355.486 869.491 C 4375.200 840.130, 4385 807.093, 4385 770 C 4385 716.834, 4364.784 673.955, 4326.877 646.716 C 4316.217 639.056, 4290.068 625.629, 4276.124 620.656 L 4266.749 617.313 4273.624 613.491 C 4298.281 599.789, 4318.989 581.368, 4332.423 561.189 C 4350.422 534.152, 4358.313 500.452, 4355.050 464.552 C 4351.451 424.949, 4338.643 395.530, 4314.536 371.493 C 4284.129 341.174, 4241.989 325.279, 4183.405 322.031 C 4173.557 321.485, 4115.438 321.030, 4054.250 321.019 L 3943 321 3943 633.500 M 3547.581 386.735 C 3535.514 427.929, 3516.808 481.006, 3476.649 588 C 3453.838 648.775, 3435.287 698.614, 3435.425 698.754 C 3435.562 698.894, 3490.328 698.894, 3557.126 698.754 L 3678.578 698.500 3638.779 597.500 C 3585.698 462.792, 3577.413 440.569, 3561.423 390 C 3557.683 378.175, 3554.342 368.156, 3553.997 367.735 C 3553.653 367.315, 3550.765 375.865, 3547.581 386.735 M 4003 486.003 L 4003 596.093 4099.250 595.738 C 4194.310 595.388, 4195.620 595.356, 4205.244 593.172 C 4247.206 583.651, 4275.795 559.608, 4287.964 523.607 C 4292.857 509.132, 4294.328 497.363, 4293.705 477.669 C 4292.950 453.760, 4289.486 439.915, 4280.277 424 C 4275.368 415.516, 4260.350 400.395, 4252.039 395.568 C 4238.356 387.621, 4221.313 382, 4199.877 378.362 C 4190.594 376.787, 4179.666 376.565, 4096.250 376.257 L 4003 375.913 4003 486.003 M 1214 634.004 L 1214 840.152 1279.250 839.713 C 1345.935 839.264, 1349.906 839.054, 1371 834.869 C 1424.467 824.261, 1454.635 795.592, 1468.962 741.774 C 1475.907 715.685, 1478.949 688.832, 1479.700 647 C 1481.096 569.250, 1471.464 519.595, 1448.157 484.394 C 1427.531 453.243, 1398.486 437.202, 1349.500 429.908 C 1344.231 429.124, 1319.736 428.570, 1277.750 428.287 L 1214 427.856 1214 634.004 M 4003 770.539 L 4003 892.078 4108.250 891.717 C 4223.033 891.323, 4217.735 891.577, 4239.500 885.435 C 4284.088 872.854, 4313.223 840.569, 4320.504 795.672 C 4322.476 783.518, 4322.456 757.906, 4320.467 746.381 C 4311.920 696.853, 4278.236 663.817, 4225.319 653.060 C 4207.609 649.460, 4194.067 649.032, 4097.250 649.016 L 4003 649 4003 770.539" stroke="none" fill="#ffffff" fill-rule="evenodd"/></svg>