<svg xmlns="http://www.w3.org/2000/svg" width="4000" height="4000" viewBox="0 0 4000 4000" version="1.1"><path d="M 1045.761 1871.025 C 986.456 1877.754, 936.658 1901.634, 897.498 1942.124 C 856.387 1984.633, 832.186 2041.098, 824.906 2111.500 C 821.960 2139.992, 823.821 2188.195, 829.076 2219.500 C 847.013 2326.345, 909.224 2397.540, 1006 2421.974 C 1031.048 2428.298, 1054.716 2430.979, 1085.500 2430.979 C 1139.237 2430.979, 1184.379 2420.637, 1233.500 2397.074 C 1255.251 2386.640, 1271.082 2376.753, 1291.750 2360.695 L 1302 2352.731 1302 2248.865 L 1302 2145 1191.500 2145 L 1081 2145 1081 2177.500 L 1081 2210 1156.508 2210 L 1232.017 2210 1231.758 2265.737 L 1231.500 2321.473 1224.500 2326.299 C 1198.018 2344.552, 1159.766 2359.473, 1122.333 2366.150 C 1111.217 2368.133, 1106.222 2368.435, 1085 2368.406 C 1058.801 2368.371, 1050.574 2367.462, 1030.552 2362.386 C 1001.857 2355.113, 976.908 2341.004, 956.500 2320.511 C 942.543 2306.496, 933.961 2294.406, 924.549 2275.500 C 910.825 2247.931, 903.159 2218.553, 899.908 2181.072 C 898.171 2161.037, 899.255 2117.279, 901.930 2099.500 C 912.939 2026.305, 945.501 1974.684, 996.889 1948.959 C 1044.939 1924.904, 1112.908 1926.422, 1156.868 1952.530 C 1166.987 1958.540, 1181.813 1970.660, 1188.117 1978.076 C 1201.585 1993.920, 1213.402 2015.125, 1219.979 2035.250 C 1221.754 2040.683, 1223.718 2045, 1224.415 2045 C 1226.252 2045, 1293.324 2029.009, 1293.899 2028.434 C 1295.068 2027.265, 1283.989 1997.483, 1277.415 1984.123 C 1265.727 1960.370, 1254.002 1943.991, 1236.864 1927.477 C 1205.294 1897.058, 1168.757 1880.040, 1118.510 1872.352 C 1106.768 1870.555, 1057.778 1869.662, 1045.761 1871.025 M 1622 2150.500 L 1622 2422 1658 2422 L 1694 2422 1694 2304.500 L 1694 2187 1731.949 2187 C 1784.554 2187, 1796.659 2188.747, 1818.500 2199.490 C 1824.550 2202.466, 1832.486 2207.171, 1836.135 2209.944 C 1851.867 2221.901, 1866.929 2241.406, 1883.284 2271 C 1887.996 2279.525, 1906.604 2316.988, 1924.635 2354.250 L 1957.420 2422 1997.710 2422 C 2019.869 2422, 2038 2421.757, 2038 2421.460 C 2038 2420.372, 1963.787 2272.946, 1954.632 2255.848 C 1936.973 2222.868, 1923.195 2202.137, 1911.731 2191.303 C 1905.740 2185.641, 1894.944 2178.275, 1891.295 2177.359 C 1886.755 2176.220, 1889.183 2174.444, 1899.750 2171.171 C 1943.804 2157.531, 1976.219 2132.329, 1993.263 2098.468 C 1998.076 2088.906, 2002.562 2075.834, 2005.199 2063.688 C 2007.133 2054.782, 2007.414 2050.480, 2007.433 2029.500 C 2007.449 2010.722, 2007.072 2003.490, 2005.699 1996.264 C 2002.985 1981.987, 1999.342 1970.453, 1994.009 1959.257 C 1972.191 1913.456, 1928.419 1887.593, 1860.778 1880.536 C 1848.467 1879.251, 1827.715 1879, 1734.028 1879 L 1622 1879 1622 2150.500 M 2325 2150.500 L 2325 2422 2361.500 2422 L 2398 2422 2398 2150.500 L 2398 1879 2361.500 1879 L 2325 1879 2325 2150.500 M 2728 2150.501 L 2728 2422.081 2840.750 2421.746 C 2950.250 2421.422, 2953.877 2421.350, 2966.568 2419.279 C 2973.755 2418.105, 2984.501 2415.951, 2990.446 2414.490 C 3101.544 2387.202, 3161.972 2293.147, 3161.981 2147.500 C 3161.988 2038.455, 3127.259 1957.999, 3061.500 1914.717 C 3042.363 1902.121, 3015.366 1890.845, 2991.848 1885.626 C 2963.499 1879.335, 2970.217 1879.624, 2843.750 1879.257 L 2728 1878.921 2728 2150.501 M 1694 2032.939 L 1694 2122 1756.250 2121.979 C 1790.487 2121.968, 1825.025 2121.536, 1833 2121.019 C 1888.938 2117.391, 1920.244 2096.876, 1930.235 2057.301 C 1933.427 2044.656, 1933.415 2018.539, 1930.212 2005.705 C 1922.007 1972.841, 1899.787 1954.833, 1857 1946.375 C 1849.607 1944.913, 1838.444 1944.641, 1771.250 1944.286 L 1694 1943.878 1694 2032.939 M 2800 2150.565 L 2800 2357.130 2871.750 2356.718 C 2940.159 2356.324, 2944.035 2356.204, 2955 2354.140 C 3012.817 2343.253, 3048.041 2315.239, 3068.372 2263.974 C 3079.202 2236.665, 3085.036 2203.166, 3086.566 2159.500 C 3088.433 2106.227, 3080.188 2056.454, 3064.036 2023.500 C 3044.314 1983.261, 3009.091 1957.029, 2962.799 1948.106 C 2943.783 1944.441, 2933.383 1944, 2865.894 1944 L 2800 1944 2800 2150.565 M 954.500 2632.636 C 934.413 2635.598, 918.985 2640.359, 903.175 2648.474 C 859.718 2670.779, 831.999 2714.383, 824.991 2771.462 C 823.585 2782.920, 823.602 2815.528, 825.021 2828.500 C 833.328 2904.411, 873.300 2952.888, 939.396 2967.211 C 953.324 2970.230, 992.756 2970.512, 1006 2967.688 C 1049.689 2958.372, 1081.240 2934.468, 1100.457 2896.121 C 1104.127 2888.799, 1111.559 2867.796, 1112.178 2863 C 1112.538 2860.208, 1114.480 2860.859, 1084.337 2853.673 L 1070.174 2850.296 1066.993 2860.398 C 1056.027 2895.231, 1036.523 2917.317, 1008.022 2927.174 C 990.321 2933.297, 965.351 2934.191, 946.198 2929.387 C 919.860 2922.782, 898.711 2905.259, 885.578 2879.160 C 864.123 2836.524, 863.664 2766.486, 884.569 2724.840 C 895.233 2703.594, 912.050 2686.746, 931.310 2678.014 C 957.496 2666.140, 996.779 2666.841, 1021.090 2679.617 C 1039.132 2689.097, 1053.260 2706.793, 1061.536 2730.274 C 1063.656 2736.289, 1064.641 2737.937, 1065.888 2737.560 C 1066.775 2737.291, 1076.246 2735.023, 1086.935 2732.518 C 1097.624 2730.013, 1106.558 2727.776, 1106.787 2727.546 C 1107.017 2727.316, 1106.190 2724.062, 1104.948 2720.314 C 1089.332 2673.189, 1058.443 2645.304, 1010.266 2634.840 C 1002.335 2633.118, 996.460 2632.670, 979 2632.456 C 967.175 2632.312, 956.150 2632.392, 954.500 2632.636 M 1315.500 2633.396 C 1282.219 2638.867, 1254.109 2653.011, 1231.825 2675.500 C 1220.076 2687.356, 1211.422 2699.595, 1203.541 2715.500 C 1190.092 2742.642, 1185.040 2766.122, 1185.038 2801.500 C 1185.036 2833.825, 1189.908 2857.870, 1201.452 2882.500 C 1222.270 2926.918, 1259.197 2956.362, 1307.741 2967.252 C 1322.165 2970.488, 1360.835 2970.488, 1375.259 2967.252 C 1422.347 2956.689, 1457.609 2929.376, 1479.087 2886.828 C 1499.423 2846.543, 1503.518 2788.272, 1489.337 2741 C 1481.758 2715.737, 1468.393 2693.253, 1450.068 2674.937 C 1429.190 2654.069, 1405.643 2641.388, 1375.500 2634.779 C 1363.827 2632.220, 1327.716 2631.387, 1315.500 2633.396 M 2685.500 2633.396 C 2652.219 2638.867, 2624.109 2653.011, 2601.825 2675.500 C 2590.076 2687.356, 2581.422 2699.595, 2573.541 2715.500 C 2560.092 2742.642, 2555.040 2766.122, 2555.038 2801.500 C 2555.036 2833.825, 2559.908 2857.870, 2571.452 2882.500 C 2592.270 2926.918, 2629.197 2956.362, 2677.741 2967.252 C 2692.165 2970.488, 2730.835 2970.488, 2745.259 2967.252 C 2792.347 2956.689, 2827.609 2929.376, 2849.087 2886.828 C 2869.423 2846.543, 2873.518 2788.272, 2859.337 2741 C 2851.758 2715.737, 2838.393 2693.253, 2820.068 2674.937 C 2799.190 2654.069, 2775.643 2641.388, 2745.500 2634.779 C 2733.827 2632.220, 2697.716 2631.387, 2685.500 2633.396 M 1587 2801 L 1587 2964 1607.996 2964 L 1628.992 2964 1629.246 2837.111 L 1629.500 2710.222 1711.119 2836.861 L 1792.738 2963.500 1815.369 2963.769 L 1838 2964.038 1838 2801.019 L 1838 2638 1817.004 2638 L 1796.008 2638 1795.754 2764.388 L 1795.500 2890.775 1714.086 2764.388 L 1632.671 2638 1609.836 2638 L 1587 2638 1587 2801 M 1916 2657.500 L 1916 2677 1968 2677 L 2020 2677 2020 2820.500 L 2020 2964 2042 2964 L 2064 2964 2064 2820.500 L 2064 2677 2116 2677 L 2168 2677 2168 2657.500 L 2168 2638 2042 2638 L 1916 2638 1916 2657.500 M 2246 2800.947 L 2246 2964 2268 2964 L 2290 2964 2290 2893.384 L 2290 2822.768 2316.750 2823.253 C 2339.884 2823.673, 2344.581 2824.027, 2351.500 2825.871 C 2361.898 2828.644, 2370.390 2832.983, 2377.896 2839.361 C 2391.677 2851.072, 2398.252 2861.927, 2426.131 2919 L 2447.868 2963.500 2472.434 2963.767 C 2485.945 2963.915, 2497 2963.796, 2497 2963.504 C 2497 2962.005, 2442.495 2856.134, 2437.547 2848.022 C 2427.151 2830.977, 2421.006 2824.016, 2412.017 2819.100 C 2408.514 2817.185, 2407.079 2815.926, 2408.025 2815.598 C 2408.836 2815.316, 2412.425 2814.126, 2416 2812.952 C 2448.092 2802.422, 2468.165 2782.582, 2476.151 2753.500 C 2479.350 2741.851, 2479.395 2715.400, 2476.238 2702.791 C 2467.799 2669.092, 2445.336 2649.477, 2405.209 2640.766 C 2395.922 2638.750, 2392.249 2638.642, 2320.750 2638.277 L 2246 2637.895 2246 2800.947 M 2957 2801 L 2957 2964 3059.500 2964 L 3162 2964 3162 2944.500 L 3162 2925 3081.500 2925 L 3001 2925 3001 2781.500 L 3001 2638 2979 2638 L 2957 2638 2957 2801 M 1328.500 2670.051 C 1293.854 2673.421, 1264.657 2692.905, 1247.658 2724 C 1232.062 2752.527, 1226.263 2796.197, 1232.916 2835 C 1238.663 2868.517, 1255.103 2896.842, 1278.501 2913.538 C 1312.243 2937.616, 1364.405 2938.874, 1399.215 2916.449 C 1420.587 2902.681, 1435.681 2882.237, 1444.322 2855.352 C 1450.182 2837.117, 1451.434 2827.629, 1451.425 2801.500 C 1451.420 2783.895, 1451.011 2776.334, 1449.681 2769.264 C 1444.225 2740.262, 1434.143 2718.742, 1418.046 2701.739 C 1407.873 2690.995, 1400.301 2685.431, 1387.852 2679.556 C 1376.724 2674.304, 1365.480 2671.287, 1352.222 2669.997 C 1341.371 2668.942, 1339.866 2668.945, 1328.500 2670.051 M 2698.500 2670.051 C 2663.854 2673.421, 2634.657 2692.905, 2617.658 2724 C 2602.062 2752.527, 2596.263 2796.197, 2602.916 2835 C 2608.663 2868.517, 2625.103 2896.842, 2648.501 2913.538 C 2682.243 2937.616, 2734.405 2938.874, 2769.215 2916.449 C 2790.587 2902.681, 2805.681 2882.237, 2814.322 2855.352 C 2820.182 2837.117, 2821.434 2827.629, 2821.425 2801.500 C 2821.420 2783.895, 2821.011 2776.334, 2819.681 2769.264 C 2814.225 2740.262, 2804.143 2718.742, 2788.046 2701.739 C 2777.873 2690.995, 2770.301 2685.431, 2757.852 2679.556 C 2746.724 2674.304, 2735.480 2671.287, 2722.222 2669.997 C 2711.371 2668.942, 2709.866 2668.945, 2698.500 2670.051 M 2290 2730.500 L 2290 2784 2327.250 2783.991 C 2347.738 2783.987, 2369.675 2783.529, 2376 2782.974 C 2396.711 2781.157, 2410.156 2776.014, 2420.008 2766.139 C 2429.414 2756.711, 2433 2746.506, 2433 2729.161 C 2433 2703.361, 2421.919 2688.360, 2397.500 2681.101 C 2386.122 2677.718, 2374.765 2677.017, 2331.250 2677.008 L 2290 2677 2290 2730.500" stroke="none" fill="#1e8fb9" fill-rule="evenodd"/><path d="M 401 1796.747 L 401 3191.493 456 3136.500 L 511 3081.507 511 1796.753 L 511 512 1795.753 512 L 3080.507 512 3135.500 457 L 3190.493 402 1795.747 402 L 401 402 401 1796.747 M 3542.747 866.753 L 3488 921.507 3488 2205.253 L 3488 3489 2204.247 3489 L 920.493 3489 865.500 3544 L 810.507 3599 2204.253 3599 L 3598 3599 3598 2205.500 C 3598 1439.075, 3597.886 812, 3597.747 812 C 3597.607 812, 3572.857 836.639, 3542.747 866.753 M 2815.745 951.591 C 2690.607 963.991, 2609.595 1031.311, 2598.044 1132.500 C 2596.539 1145.683, 2596.776 1171.732, 2598.531 1186.030 C 2603.887 1229.670, 2618.953 1262.043, 2646.948 1290.065 C 2676.222 1319.367, 2714.117 1341.253, 2767.209 1359.519 C 2789.505 1367.190, 2808.146 1372.493, 2844 1381.364 C 2948.794 1407.292, 2985.505 1424.127, 2998.947 1452.416 C 3004.590 1464.293, 3007.625 1482.391, 3006.673 1498.500 C 3005.917 1511.307, 3004.082 1518.270, 2998.428 1529.796 C 2994.696 1537.402, 2992.290 1540.691, 2985.184 1547.896 C 2975.206 1558.012, 2967.531 1563.454, 2954.605 1569.577 C 2929.141 1581.640, 2900.618 1586.756, 2864.608 1585.720 C 2837.315 1584.936, 2818.192 1581.050, 2799.338 1572.458 C 2769.414 1558.821, 2746.621 1532.256, 2732.568 1494.640 C 2728.282 1483.166, 2722.808 1463.638, 2720.965 1453.250 C 2719.853 1446.979, 2719.397 1445.999, 2717.590 1445.989 C 2712.530 1445.963, 2572.402 1463.392, 2571.549 1464.154 C 2569.524 1465.960, 2577.853 1504.411, 2585.083 1526.636 C 2617.092 1625.023, 2692.024 1687.975, 2798.500 1705.933 C 2826.923 1710.727, 2874.153 1712.525, 2904.500 1709.969 C 3006.696 1701.360, 3083.663 1662.323, 3125.264 1598 C 3150.343 1559.222, 3160.257 1507.519, 3153.930 1448.500 C 3145.615 1370.934, 3112.570 1324.405, 3040.025 1288.122 C 3003.531 1269.869, 2969.558 1258.425, 2904.728 1242.547 C 2802.732 1217.567, 2767.719 1202.558, 2750.824 1176.572 C 2740.400 1160.538, 2739.287 1136.869, 2748.084 1118.260 C 2753.133 1107.578, 2765.395 1096.094, 2779.500 1088.836 C 2791.580 1082.621, 2805.378 1078, 2820 1075.272 C 2834.527 1072.563, 2876.081 1072.872, 2892.178 1075.810 C 2936.682 1083.933, 2962.060 1102.909, 2976.421 1138.802 C 2980.270 1148.424, 2984.551 1164.905, 2985.593 1174.122 L 2986.262 1180.034 2990.881 1179.442 C 2993.421 1179.117, 3026.658 1175.363, 3064.740 1171.102 C 3102.822 1166.840, 3134.258 1163.076, 3134.597 1162.736 C 3135.494 1161.839, 3131.304 1141.426, 3127.364 1127.500 C 3115.307 1084.886, 3095.901 1050.111, 3069.086 1023.070 C 3050.709 1004.538, 3033.092 991.997, 3008.500 979.940 C 2976.567 964.285, 2943.847 955.618, 2901.089 951.488 C 2881.846 949.630, 2834.969 949.686, 2815.745 951.591 M 831 1330.500 L 831 1698 1082.508 1698 L 1334.015 1698 1333.758 1635.750 L 1333.500 1573.500 1156.750 1573.247 L 980 1572.994 980 1476.497 L 980 1380 1134 1380 L 1288 1380 1288 1317.500 L 1288 1255 1134 1255 L 980 1255 980 1171.500 L 980 1088 1148 1088 L 1316 1088 1316 1025.500 L 1316 963 1073.500 963 L 831 963 831 1330.500 M 1497 1330.500 L 1497 1698.067 1662.250 1697.710 C 1838.824 1697.328, 1832.742 1697.488, 1862.500 1692.449 C 1954.266 1676.913, 2017.196 1635.715, 2060.575 1562.779 C 2089.250 1514.565, 2105.706 1458.181, 2112.170 1386 C 2113.867 1367.046, 2113.862 1302.633, 2112.161 1281.500 C 2105.463 1198.255, 2086.082 1133.341, 2053.214 1084.059 C 2042.642 1068.207, 2036.149 1060.155, 2023.037 1046.636 C 1983.942 1006.327, 1930.864 980.038, 1866.422 969.067 C 1833.313 963.431, 1841.966 963.676, 1662.750 963.290 L 1497 962.933 1497 1330.500 M 2273 1330.500 L 2273 1698 2347.500 1698 L 2422 1698 2422 1330.500 L 2422 963 2347.500 963 L 2273 963 2273 1330.500 M 1646 1330.499 L 1646 1573.133 1722.750 1572.727 C 1804.508 1572.295, 1806.375 1572.196, 1832.458 1566.899 C 1886.507 1555.925, 1920.044 1528.376, 1939.467 1479 C 1962.168 1421.289, 1966.538 1292.876, 1948.349 1218 C 1939.615 1182.048, 1925.150 1154.105, 1904.550 1133.396 C 1881.197 1109.919, 1851.899 1096.999, 1807 1090.378 C 1797.216 1088.935, 1784.343 1088.621, 1720.750 1088.273 L 1646 1087.864 1646 1330.499" stroke="none" fill="#086a83" fill-rule="evenodd"/></svg>