<svg xmlns="http://www.w3.org/2000/svg" width="4000" height="4000" viewBox="0 0 4000 4000" version="1.1"><path d="M 1274.500 2002.063 C 1205.178 2005.134, 1142.067 2021.295, 1083.500 2050.974 C 948.697 2119.286, 860.606 2250.579, 836.572 2419 C 831.966 2451.272, 830.800 2468.384, 830.271 2511.406 C 829.625 2563.896, 831.425 2595.152, 837.560 2638 C 851.742 2737.048, 886.419 2822.252, 939.789 2889.191 C 953.424 2906.293, 982.722 2935.583, 1000 2949.384 C 1068.908 3004.429, 1152.519 3036.393, 1254 3046.484 C 1328.025 3053.845, 1403.243 3048.306, 1473 3030.358 C 1561.769 3007.518, 1644.423 2966.244, 1711.750 2911.136 L 1723 2901.928 1723 2708.464 L 1723 2515 1516.992 2515 L 1310.985 2515 1311.242 2575.750 L 1311.500 2636.500 1451.750 2636.753 L 1592 2637.007 1592 2740.329 L 1592 2843.651 1589.750 2845.702 C 1588.513 2846.830, 1583.178 2850.723, 1577.895 2854.353 C 1524.926 2890.754, 1447.720 2919.868, 1377.500 2929.921 C 1345.310 2934.530, 1301.544 2935.162, 1269.500 2931.482 C 1202.775 2923.818, 1146.782 2901.652, 1100 2864.379 C 1088.168 2854.952, 1064.927 2831.524, 1055.085 2819.102 C 1014.032 2767.288, 987.621 2701.227, 976.083 2621.500 C 967.117 2559.539, 967.112 2486.976, 976.070 2426.591 C 994.268 2303.924, 1048.604 2210.934, 1131.581 2160.452 C 1182.090 2129.723, 1240.646 2115.448, 1308.500 2117.322 C 1349.208 2118.446, 1381.816 2124.571, 1414.258 2137.186 C 1489.808 2166.565, 1543.607 2227.226, 1571.069 2314 C 1573.419 2321.425, 1575.621 2327.834, 1575.963 2328.242 C 1576.480 2328.860, 1706.701 2298.633, 1707.661 2297.672 C 1708.239 2297.094, 1698.388 2266.644, 1693.047 2252.500 C 1646.422 2129.023, 1554.736 2046.935, 1429 2016.095 C 1396.422 2008.105, 1363.819 2003.672, 1325.500 2002.024 C 1300.537 2000.950, 1299.615 2000.950, 1274.500 2002.063 M 2727 2001.615 C 2722.325 2001.787, 2711.525 2002.426, 2703 2003.035 C 2560.299 2013.218, 2439.111 2081.244, 2364.161 2193.234 C 2311.795 2271.478, 2283.319 2360.844, 2276.026 2469.830 C 2274.722 2489.309, 2274.703 2549.559, 2275.993 2570.500 C 2282.038 2668.607, 2301.698 2746.769, 2338.372 2818.500 C 2360.977 2862.713, 2387.075 2898.417, 2420.431 2930.763 C 2492.183 3000.343, 2583.584 3038.982, 2698 3048.103 C 2730.686 3050.708, 2779.055 3049.561, 2811.500 3045.411 C 2978.362 3024.066, 3103.352 2920.889, 3156.038 2761 C 3162.292 2742.021, 3170.704 2711.331, 3169.863 2710.560 C 3169.480 2710.209, 3043.845 2680.303, 3040.621 2679.796 C 3039.004 2679.541, 3038.268 2681.299, 3035.326 2692.431 C 3027.513 2722.003, 3017.357 2749.320, 3004.927 2774.193 C 2987.726 2808.612, 2969.854 2833.329, 2944.238 2858.128 C 2889.718 2910.908, 2818.581 2935.944, 2729.500 2933.702 C 2704.202 2933.066, 2688.972 2931.436, 2666.954 2927.012 C 2550.975 2903.705, 2468.226 2817.033, 2433.508 2682.500 C 2408.845 2586.926, 2407.845 2465.750, 2430.969 2374.716 C 2453.282 2286.874, 2494.255 2220.932, 2555 2175.104 C 2581.883 2154.822, 2612.774 2139.410, 2645.493 2129.956 C 2690.245 2117.025, 2746.616 2113.517, 2796.500 2120.559 C 2905.335 2135.922, 2976.454 2198.338, 3015.555 2312.809 C 3018.431 2321.229, 3020.976 2328.310, 3021.211 2328.545 C 3021.611 2328.945, 3152 2298.333, 3152.645 2297.688 C 3153.216 2297.118, 3144.764 2270.395, 3139.782 2257.016 C 3137.021 2249.600, 3132.509 2238.350, 3129.756 2232.016 C 3069.923 2094.365, 2951.643 2014.789, 2789.500 2003.101 C 2773.575 2001.953, 2739.664 2001.147, 2727 2001.615" stroke="none" fill="#1e8fb9" fill-rule="evenodd"/><path d="M 401 1796.747 L 401 3191.493 456 3136.500 L 511 3081.507 511 1796.753 L 511 512 1795.753 512 L 3080.507 512 3135.500 457 L 3190.493 402 1795.747 402 L 401 402 401 1796.747 M 3542.747 866.753 L 3488 921.507 3488 2205.253 L 3488 3489 2204.247 3489 L 920.493 3489 865.500 3544 L 810.507 3599 2204.253 3599 L 3598 3599 3598 2205.500 C 3598 1439.075, 3597.886 812, 3597.747 812 C 3597.607 812, 3572.857 836.639, 3542.747 866.753 M 2822.745 951.591 C 2697.607 963.991, 2616.595 1031.311, 2605.044 1132.500 C 2603.539 1145.683, 2603.776 1171.732, 2605.531 1186.030 C 2610.887 1229.670, 2625.953 1262.043, 2653.948 1290.065 C 2683.222 1319.367, 2721.117 1341.253, 2774.209 1359.519 C 2796.505 1367.190, 2815.146 1372.493, 2851 1381.364 C 2955.794 1407.292, 2992.505 1424.127, 3005.947 1452.416 C 3011.590 1464.293, 3014.625 1482.391, 3013.673 1498.500 C 3012.917 1511.307, 3011.082 1518.270, 3005.428 1529.796 C 3001.696 1537.402, 2999.290 1540.691, 2992.184 1547.896 C 2982.206 1558.012, 2974.531 1563.454, 2961.605 1569.577 C 2936.141 1581.640, 2907.618 1586.756, 2871.608 1585.720 C 2844.315 1584.936, 2825.192 1581.050, 2806.338 1572.458 C 2776.414 1558.821, 2753.621 1532.256, 2739.568 1494.640 C 2735.282 1483.166, 2729.808 1463.638, 2727.965 1453.250 C 2726.853 1446.979, 2726.397 1445.999, 2724.590 1445.989 C 2719.530 1445.963, 2579.402 1463.392, 2578.549 1464.154 C 2576.524 1465.960, 2584.853 1504.411, 2592.083 1526.636 C 2624.092 1625.023, 2699.024 1687.975, 2805.500 1705.933 C 2833.923 1710.727, 2881.153 1712.525, 2911.500 1709.969 C 3013.696 1701.360, 3090.663 1662.323, 3132.264 1598 C 3157.343 1559.222, 3167.257 1507.519, 3160.930 1448.500 C 3152.615 1370.934, 3119.570 1324.405, 3047.025 1288.122 C 3010.531 1269.869, 2976.558 1258.425, 2911.728 1242.547 C 2809.732 1217.567, 2774.719 1202.558, 2757.824 1176.572 C 2747.400 1160.538, 2746.287 1136.869, 2755.084 1118.260 C 2760.133 1107.578, 2772.395 1096.094, 2786.500 1088.836 C 2798.580 1082.621, 2812.378 1078, 2827 1075.272 C 2841.527 1072.563, 2883.081 1072.872, 2899.178 1075.810 C 2943.682 1083.933, 2969.060 1102.909, 2983.421 1138.802 C 2987.270 1148.424, 2991.551 1164.905, 2992.593 1174.122 L 2993.262 1180.034 2997.881 1179.442 C 3000.421 1179.117, 3033.658 1175.363, 3071.740 1171.102 C 3109.822 1166.840, 3141.258 1163.076, 3141.597 1162.736 C 3142.494 1161.839, 3138.304 1141.426, 3134.364 1127.500 C 3122.307 1084.886, 3102.901 1050.111, 3076.086 1023.070 C 3057.709 1004.538, 3040.092 991.997, 3015.500 979.940 C 2983.567 964.285, 2950.847 955.618, 2908.089 951.488 C 2888.846 949.630, 2841.969 949.686, 2822.745 951.591 M 838 1330.500 L 838 1698 1089.508 1698 L 1341.015 1698 1340.758 1635.750 L 1340.500 1573.500 1163.750 1573.247 L 987 1572.994 987 1476.497 L 987 1380 1141 1380 L 1295 1380 1295 1317.500 L 1295 1255 1141 1255 L 987 1255 987 1171.500 L 987 1088 1155 1088 L 1323 1088 1323 1025.500 L 1323 963 1080.500 963 L 838 963 838 1330.500 M 1504 1330.500 L 1504 1698.067 1669.250 1697.710 C 1845.824 1697.328, 1839.742 1697.488, 1869.500 1692.449 C 1961.266 1676.913, 2024.196 1635.715, 2067.575 1562.779 C 2096.250 1514.565, 2112.706 1458.181, 2119.170 1386 C 2120.867 1367.046, 2120.862 1302.633, 2119.161 1281.500 C 2112.463 1198.255, 2093.082 1133.341, 2060.214 1084.059 C 2049.642 1068.207, 2043.149 1060.155, 2030.037 1046.636 C 1990.942 1006.327, 1937.864 980.038, 1873.422 969.067 C 1840.313 963.431, 1848.966 963.676, 1669.750 963.290 L 1504 962.933 1504 1330.500 M 2280 1330.500 L 2280 1698 2354.500 1698 L 2429 1698 2429 1330.500 L 2429 963 2354.500 963 L 2280 963 2280 1330.500 M 1653 1330.499 L 1653 1573.133 1729.750 1572.727 C 1811.508 1572.295, 1813.375 1572.196, 1839.458 1566.899 C 1893.507 1555.925, 1927.044 1528.376, 1946.467 1479 C 1969.168 1421.289, 1973.538 1292.876, 1955.349 1218 C 1946.615 1182.048, 1932.150 1154.105, 1911.550 1133.396 C 1888.197 1109.919, 1858.899 1096.999, 1814 1090.378 C 1804.216 1088.935, 1791.343 1088.621, 1727.750 1088.273 L 1653 1087.864 1653 1330.499" stroke="none" fill="#086a83" fill-rule="evenodd"/></svg>