<svg xmlns="http://www.w3.org/2000/svg" width="500" height="500" viewBox="0 0 500 500" version="1.1"><path d="M 403.250 138.947 L 398 144.668 398 271.334 L 398 398 271.216 398 L 144.432 398 139.216 403.281 C 136.347 406.186, 134 408.886, 134 409.281 C 134 409.677, 196.100 410, 272 410 L 410 410 410 271.500 C 410 195.325, 409.663 133.051, 409.250 133.113 C 408.837 133.175, 406.137 135.800, 403.250 138.947" stroke="none" fill="#1e8fb8" fill-rule="evenodd"/><path d="M 92 231 C 92 307.450, 92.187 370, 92.415 370 C 92.644 370, 95.335 367.413, 98.395 364.250 L 103.960 358.500 103.980 231.250 L 104 104 231.281 104 L 358.563 104 364.500 98 L 370.437 92 231.219 92 L 92 92 92 231 M 174 251 L 174 362 250 362 L 326 362 326 343 L 326 324 272.500 324 L 219 324 219 295 L 219 266 266 266 L 313 266 313 247 L 313 228 266 228 L 219 228 219 203 L 219 178 270 178 L 321 178 321 159 L 321 140 247.500 140 L 174 140 174 251" stroke="none" fill="#086a83" fill-rule="evenodd"/></svg>