<svg xmlns="http://www.w3.org/2000/svg" width="318" height="318" viewBox="0 0 318 318" version="1.1"><path d="M 311.250 46.947 L 306 52.668 306 179.334 L 306 306 179.216 306 L 52.432 306 47.216 311.281 C 44.347 314.186, 42 316.886, 42 317.281 C 42 317.677, 104.100 318, 180 318 L 318 318 318 179.500 C 318 103.325, 317.663 41.051, 317.250 41.113 C 316.837 41.175, 314.137 43.800, 311.250 46.947" stroke="none" fill="#1e8fb8" fill-rule="evenodd"/><path d="M 0 139 C 0 215.450, 0.187 278, 0.415 278 C 0.644 278, 3.335 275.413, 6.395 272.250 L 11.960 266.500 11.980 139.250 L 12 12 139.281 12 L 266.563 12 272.500 6 L 278.437 0 139.219 0 L 0 0 0 139 M 82 159 L 82 270 158 270 L 234 270 234 251 L 234 232 180.500 232 L 127 232 127 203 L 127 174 174 174 L 221 174 221 155 L 221 136 174 136 L 127 136 127 111 L 127 86 178 86 L 229 86 229 67 L 229 48 155.500 48 L 82 48 82 159" stroke="none" fill="#086a83" fill-rule="evenodd"/></svg>